<?xml version="1.0" encoding="UTF-8" standalone="no"?>
<svg
   xmlns:dc="http://purl.org/dc/elements/1.1/"
   xmlns:cc="http://creativecommons.org/ns#"
   xmlns:rdf="http://www.w3.org/1999/02/22-rdf-syntax-ns#"
   xmlns:svg="http://www.w3.org/2000/svg"
   xmlns="http://www.w3.org/2000/svg"
   id="svg4226"
   version="1.1"
   viewBox="0 0 114.9 97.5"
   height="97.5mm"
   width="114.9mm">
  <defs
     id="defs4220">
    <clipPath
       id="p.1">
      <path
         style="clip-rule:evenodd"
         id="path45"
         d="M 0,0 H 2432 V 2500 H 0 Z" />
    </clipPath>
    <clipPath
       id="p.2">
      <path
         style="clip-rule:evenodd"
         id="path54"
         d="M 0,0 H 1030 V 1024 H 0 Z" />
    </clipPath>
  </defs>
  <metadata
     id="metadata4223">
    <rdf:RDF>
      <cc:Work
         rdf:about="">
        <dc:format>image/svg+xml</dc:format>
        <dc:type
           rdf:resource="http://purl.org/dc/dcmitype/StillImage" />
        <dc:title></dc:title>
      </cc:Work>
    </rdf:RDF>
  </metadata>
  <g
     transform="translate(0,-199.5)"
     id="layer1">
    <g
       transform="matrix(0.26458333,0,0,0.26458333,312.71025,154.47649)"
       id="g471"
       clip-path="none">
      <path
         mask="none"
         style="fill:#000000;fill-opacity:0;fill-rule:evenodd"
         id="path9"
         d="m -975.45097,294.30886 v 0 c -16.9026,56.66111 -48.00953,107.93874 -90.42023,149.05167" />
      <path
         mask="none"
         style="fill:none;fill-rule:evenodd;stroke:#000000;stroke-width:4;stroke-linecap:butt;stroke-linejoin:round"
         id="path11"
         d="m -975.45097,294.30886 v 0 c -16.9026,56.66111 -48.00953,107.93874 -90.42023,149.05167" />
      <path
         mask="none"
         style="fill:#000000;fill-opacity:0;fill-rule:evenodd"
         id="path13"
         d="m -906.11298,256.29762 v 0 c 53.52762,42.77034 93.18671,99.83057 114.15131,164.2372 L -1131.7659,526.2735 Z" />
      <path
         mask="none"
         style="fill:#000000;fill-opacity:0;fill-rule:evenodd"
         id="path15"
         d="m -906.11298,256.29762 v 0 c 53.52762,42.77034 93.18671,99.83057 114.15131,164.2372" />
      <path
         mask="none"
         style="fill:none;fill-rule:evenodd;stroke:#000000;stroke-width:4;stroke-linecap:butt;stroke-linejoin:round"
         id="path17"
         d="m -906.11298,256.29762 v 0 c 53.52762,42.77034 93.18671,99.83057 114.15131,164.2372" />
      <path
         mask="none"
         style="fill:#000000;fill-opacity:0;fill-rule:evenodd"
         id="path19"
         d="m -924.15253,280.22034 v 0 c 48.70581,42.13833 84.69812,96.49769 104.08218,157.19586 l -340.39085,103.91931 z" />
      <path
         mask="none"
         style="fill:#000000;fill-opacity:0;fill-rule:evenodd"
         id="path21"
         d="m -924.15253,280.22034 v 0 c 48.70581,42.13833 84.69812,96.49769 104.08218,157.19586" />
      <path
         mask="none"
         style="fill:none;fill-rule:evenodd;stroke:#000000;stroke-width:12;stroke-linecap:butt;stroke-linejoin:round"
         id="path23"
         d="m -924.15253,280.22034 v 0 c 48.70581,42.13833 84.69812,96.49769 104.08218,157.19586" />
      <path
         mask="none"
         style="fill:#000000;fill-opacity:0;fill-rule:evenodd"
         id="path27"
         d="m -1067.094,470.8232 v 0 c 68.30588,-21.10266 141.38679,-21.26654 209.64314,-0.47003" />
      <path
         mask="none"
         style="fill:none;fill-rule:evenodd;stroke:#000000;stroke-width:4;stroke-linecap:butt;stroke-linejoin:round"
         id="path29"
         d="m -1067.094,470.8232 v 0 c 68.30588,-21.10266 141.38679,-21.26654 209.64314,-0.47003" />
      <path
         mask="none"
         style="fill:#000000;fill-opacity:0;fill-rule:evenodd"
         id="path31"
         d="m -860.56735,502.73013 v 0 c -66.70551,21.94183 -138.32275,23.90735 -205.77925,5.64755 l 96.64296,-337.22574 z" />
      <path
         mask="none"
         style="fill:#000000;fill-opacity:0;fill-rule:evenodd"
         id="path33"
         d="m -860.56735,502.73013 v 0 c -66.70551,21.94183 -138.32275,23.90735 -205.77925,5.64755" />
      <path
         mask="none"
         style="fill:none;fill-rule:evenodd;stroke:#000000;stroke-width:4;stroke-linecap:butt;stroke-linejoin:round"
         id="path35"
         d="m -860.56735,502.73013 v 0 c -66.70551,21.94183 -138.32275,23.90735 -205.77925,5.64755" />
      <path
         mask="none"
         style="fill:#000000;fill-opacity:0;fill-rule:evenodd"
         id="path37"
         d="m -1129.2077,422.77959 v 0 c 19.8647,-66.7076 59.3931,-125.75906 113.5321,-169.60559 l 225.58442,273.131 z" />
      <path
         mask="none"
         style="fill:#000000;fill-opacity:0;fill-rule:evenodd"
         id="path39"
         d="m -1129.2077,422.77959 v 0 c 19.8647,-66.7076 59.3931,-125.75906 113.5321,-169.60559" />
      <path
         mask="none"
         style="fill:none;fill-rule:evenodd;stroke:#000000;stroke-width:4;stroke-linecap:butt;stroke-linejoin:round"
         id="path41"
         d="m -1129.2077,422.77959 v 0 c 19.8647,-66.7076 59.3931,-125.75906 113.5321,-169.60559" />
      <g
         id="g50"
         transform="matrix(0.49129002,0,0,0.49119987,1611.6305,-927.0784)">
        <clipPath
           id="clipPath4264">
          <path
             style="clip-rule:evenodd"
             id="path4262"
             d="M 0,0 H 2432 V 2500 H 0 Z" />
        </clipPath>
      </g>
      <g
         id="g59"
         transform="matrix(1.1944042,0,0,1.1936396,1834.2524,637.08527)">
        <clipPath
           id="clipPath4271">
          <path
             style="clip-rule:evenodd"
             id="path4269"
             d="M 0,0 H 1030 V 1024 H 0 Z" />
        </clipPath>
      </g>
      <path
         mask="none"
         style="fill:#ffffff;fill-rule:evenodd"
         id="path61"
         d="m -1021.3486,236.24524 v 0 c 0,-31.88466 26.2566,-57.73228 58.64572,-57.73228 v 0 c 15.5538,0 30.47055,6.08249 41.46875,16.90939 10.9982,10.82691 17.17691,25.51134 17.17691,40.82289 v 0 c 0,31.88466 -26.25656,57.73228 -58.64566,57.73228 v 0 c -32.38912,0 -58.64572,-25.84762 -58.64572,-57.73228 z" />
      <path
         mask="none"
         style="fill:none;fill-rule:evenodd;stroke:#000000;stroke-width:4;stroke-linecap:butt;stroke-linejoin:round"
         id="path63"
         d="m -1021.3486,236.24524 v 0 c 0,-31.88466 26.2566,-57.73228 58.64572,-57.73228 v 0 c 15.5538,0 30.47055,6.08249 41.46875,16.90939 10.9982,10.82691 17.17691,25.51134 17.17691,40.82289 v 0 c 0,31.88466 -26.25656,57.73228 -58.64566,57.73228 v 0 c -32.38912,0 -58.64572,-25.84762 -58.64572,-57.73228 z" />
      <path
         mask="none"
         style="fill:#ffffff;fill-rule:evenodd"
         id="path69"
         d="m -1172.3653,476.94708 v 0 c 0,-31.88464 26.2566,-57.73227 58.6457,-57.73227 v 0 c 15.5538,0 30.4706,6.08249 41.4687,16.90939 10.9982,10.82691 17.177,25.51133 17.177,40.82288 v 0 c 0,31.88467 -26.2566,57.7323 -58.6457,57.7323 v 0 c -32.3891,0 -58.6457,-25.84763 -58.6457,-57.7323 z" />
      <path
         mask="none"
         style="fill:none;fill-rule:evenodd;stroke:#000000;stroke-width:4;stroke-linecap:butt;stroke-linejoin:round"
         id="path71"
         d="m -1172.3653,476.94708 v 0 c 0,-31.88464 26.2566,-57.73227 58.6457,-57.73227 v 0 c 15.5538,0 30.4706,6.08249 41.4687,16.90939 10.9982,10.82691 17.177,25.51133 17.177,40.82288 v 0 c 0,31.88467 -26.2566,57.7323 -58.6457,57.7323 v 0 c -32.3891,0 -58.6457,-25.84763 -58.6457,-57.7323 z" />
      <path
         mask="none"
         style="fill:#000000;fill-rule:nonzero"
         id="path73"
         d="m -1131.6647,488.94708 v -23.85937 h 3.1563 v 21.04687 h 11.75 v 2.8125 z m 18.6762,0 v -23.85937 h 9 q 2.375,0 3.625,0.23437 1.75,0.28125 2.9375,1.10938 1.1875,0.82812 1.9062,2.3125 0.7344,1.46875 0.7344,3.25 0,3.04687 -1.9375,5.15625 -1.9375,2.09375 -7,2.09375 h -6.1094 v 9.70312 z m 3.1562,-12.51562 h 6.1563 q 3.0625,0 4.3437,-1.14063 1.2969,-1.14062 1.2969,-3.20312 0,-1.5 -0.7656,-2.5625 -0.75,-1.0625 -1.9844,-1.40625 -0.7969,-0.21875 -2.9531,-0.21875 h -6.0938 z" />
      <path
         mask="none"
         style="fill:#000000;fill-opacity:0;fill-rule:evenodd"
         id="path75"
         d="m -1098.1766,421.89105 v 0 c 19.5556,-55.43034 52.9288,-104.89281 97.0375,-143.81947 l 236.77186,263.67145 z" />
      <path
         mask="none"
         style="fill:#000000;fill-opacity:0;fill-rule:evenodd"
         id="path77"
         d="m -1098.1766,421.89105 v 0 c 19.5556,-55.43034 52.9288,-104.89281 97.0375,-143.81947" />
      <path
         mask="none"
         style="fill:none;fill-rule:evenodd;stroke:#000000;stroke-width:12;stroke-linecap:butt;stroke-linejoin:round"
         id="path79"
         d="m -1098.1766,421.89105 v 0 c 19.5556,-55.43034 52.9288,-104.89281 97.0375,-143.81947" />
      <path
         mask="none"
         style="fill:#ffffff;fill-rule:evenodd"
         id="path81"
         d="m -870.6603,476.94708 v 0 c 0,-31.88464 26.25656,-57.73227 58.64566,-57.73227 v 0 c 15.5538,0 30.47058,6.08249 41.46878,16.90939 10.99817,10.82691 17.17691,25.51133 17.17691,40.82288 v 0 c 0,31.88467 -26.25656,57.7323 -58.64569,57.7323 v 0 c -32.3891,0 -58.64566,-25.84763 -58.64566,-57.7323 z" />
      <path
         mask="none"
         style="fill:none;fill-rule:evenodd;stroke:#000000;stroke-width:4;stroke-linecap:butt;stroke-linejoin:round"
         id="path83"
         d="m -870.6603,476.94708 v 0 c 0,-31.88464 26.25656,-57.73227 58.64566,-57.73227 v 0 c 15.5538,0 30.47058,6.08249 41.46878,16.90939 10.99817,10.82691 17.17691,25.51133 17.17691,40.82288 v 0 c 0,31.88467 -26.25656,57.7323 -58.64569,57.7323 v 0 c -32.3891,0 -58.64566,-25.84763 -58.64566,-57.7323 z" />
      <path
         mask="none"
         style="fill:#000000;fill-rule:nonzero"
         id="path85"
         d="m -831.6661,488.94708 v -23.85937 h 9 q 2.375,0 3.625,0.23437 1.75,0.28125 2.9375,1.10938 1.1875,0.82812 1.90625,2.3125 0.73438,1.46875 0.73438,3.25 0,3.04687 -1.9375,5.15625 -1.9375,2.09375 -7,2.09375 h -6.10938 v 9.70312 z m 3.15625,-12.51562 h 6.15625 q 3.0625,0 4.34375,-1.14063 1.29688,-1.14062 1.29688,-3.20312 0,-1.5 -0.76563,-2.5625 -0.75,-1.0625 -1.98437,-1.40625 -0.79688,-0.21875 -2.95313,-0.21875 h -6.09375 z m 25.79208,12.51562 v -10.10937 l -9.20312,-13.75 h 3.84375 l 4.70312,7.1875 q 1.29688,2.03125 2.42188,4.04687 1.07812,-1.875 2.60937,-4.21875 l 4.625,-7.01562 h 3.67188 l -9.51563,13.75 v 10.10937 z" />
      <path
         mask="none"
         style="fill:#000000;fill-opacity:0;fill-rule:evenodd"
         id="path87"
         d="m -1019.6696,203.43727 h 136.62993 v 38.39371 h -136.62993 z" />
      <path
         mask="none"
         style="fill:#000000;fill-rule:nonzero"
         id="path89"
         d="m -1010.7165,244.43727 9.1563,-23.85937 h 3.40622 l 9.76562,23.85937 h -3.59375 l -2.78125,-7.21875 h -9.98434 l -2.625,7.21875 z m 6.875,-9.79687 h 8.09377 l -2.48438,-6.60938 q -1.14062,-3.01562 -1.70312,-4.9375 -0.45317,2.28125 -1.28127,4.54688 z m 17.83899,9.79687 V 220.5779 h 8.95313 q 2.73437,0 4.375,0.73437 1.65625,0.71875 2.59375,2.23438 0.9375,1.5 0.9375,3.14062 0,1.53125 -0.82813,2.89063 -0.82812,1.34375 -2.5,2.17187 2.15625,0.625 3.3125,2.15625 1.17188,1.53125 1.17188,3.60937 0,1.6875 -0.70313,3.125 -0.70312,1.4375 -1.75,2.21875 -1.04687,0.78125 -2.625,1.1875 -1.5625,0.39063 -3.84375,0.39063 z m 3.15625,-13.82812 h 5.15625 q 2.10938,0 3.01563,-0.28125 1.20312,-0.35938 1.8125,-1.1875 0.60937,-0.82813 0.60937,-2.07813 0,-1.1875 -0.57812,-2.09375 -0.5625,-0.90625 -1.625,-1.23437 -1.04688,-0.34375 -3.625,-0.34375 h -4.76563 z m 0,11.01562 h 5.9375 q 1.53125,0 2.15625,-0.10938 1.09375,-0.20312 1.8125,-0.65625 0.73438,-0.45312 1.20313,-1.32812 0.48437,-0.875 0.48437,-2.01563 0,-1.32812 -0.6875,-2.31249 -0.6875,-0.98438 -1.90625,-1.375 -1.20312,-0.40625 -3.48437,-0.40625 h -5.51563 z m 16.63585,3.21875 6.92188,-24.67187 h 2.34375 l -6.90625,24.67187 z m 11.83776,-0.40625 V 220.5779 h 9 q 2.375,0 3.625,0.23437 1.75,0.28125 2.9375,1.10938 1.1875,0.82812 1.90625,2.3125 0.73437,1.46875 0.73437,3.25 0,3.04687 -1.9375,5.15625 -1.9375,2.09375 -7,2.09375 h -6.10937 v 9.70312 z m 3.15625,-12.51562 h 6.15625 q 3.0625,0 4.34375,-1.14063 1.29687,-1.14062 1.29687,-3.20312 0,-1.5 -0.76562,-2.5625 -0.75,-1.0625 -1.98438,-1.40625 -0.79687,-0.21875 -2.95312,-0.21875 h -6.09375 z m 19.07335,12.51562 V 220.5779 h 8.21876 q 2.78125,0 4.23438,0.34375 2.0625,0.46875 3.5,1.70312 1.89062,1.59375 2.82812,4.07813 0.9375,2.48437 0.9375,5.67187 0,2.71875 -0.64062,4.82812 -0.625,2.09375 -1.625,3.46875 -0.98438,1.375 -2.17188,2.17188 -1.17187,0.78125 -2.84375,1.1875 -1.67187,0.40625 -3.82812,0.40625 z m 3.15625,-2.8125 h 5.09376 q 2.35938,0 3.6875,-0.4375 1.34375,-0.4375 2.15625,-1.23438 1.10938,-1.125 1.73438,-3.01562 0.64062,-1.90625 0.64062,-4.60937 0,-3.73438 -1.23437,-5.75 -1.23438,-2.01563 -2.98438,-2.6875 -1.26562,-0.5 -4.09375,-0.5 h -5.00001 z" />
      <path
         mask="none"
         style="fill:#000000;fill-rule:evenodd"
         id="path91"
         d="m -849.08334,405.14706 v 0 c 0,-9.28882 7.66403,-16.81891 17.1181,-16.81891 v 0 c 4.54001,0 8.89408,1.77199 12.10434,4.92615 3.21027,3.15416 5.01377,7.43211 5.01377,11.89276 v 0 c 0,9.28882 -7.66404,16.81889 -17.11811,16.81889 v 0 c -9.45407,0 -17.1181,-7.53007 -17.1181,-16.81889 z" />
      <path
         mask="none"
         style="fill-rule:evenodd;stroke:#000000;stroke-width:1;stroke-linecap:butt;stroke-linejoin:round"
         id="path93"
         d="m -849.08334,405.14706 v 0 c 0,-9.28882 7.66403,-16.81891 17.1181,-16.81891 v 0 c 4.54001,0 8.89408,1.77199 12.10434,4.92615 3.21027,3.15416 5.01377,7.43211 5.01377,11.89276 v 0 c 0,9.28882 -7.66404,16.81889 -17.11811,16.81889 v 0 c -9.45407,0 -17.1181,-7.53007 -17.1181,-16.81889 z" />
      <path
         mask="none"
         style="fill:#000000;fill-rule:evenodd"
         id="path95"
         d="m -815.62778,404.08665 v 0 c 0,-9.28882 7.66406,-16.81889 17.11813,-16.81889 v 0 c 4.54001,0 8.89405,1.77198 12.10431,4.92614 3.21027,3.15415 5.0138,7.4321 5.0138,11.89275 v 0 c 0,9.28883 -7.66403,16.81891 -17.11811,16.81891 v 0 c -9.45407,0 -17.11813,-7.53008 -17.11813,-16.81891 z" />
      <path
         mask="none"
         style="fill-rule:evenodd;stroke:#000000;stroke-width:1;stroke-linecap:butt;stroke-linejoin:round"
         id="path97"
         d="m -815.62778,404.08665 v 0 c 0,-9.28882 7.66406,-16.81889 17.11813,-16.81889 v 0 c 4.54001,0 8.89405,1.77198 12.10431,4.92614 3.21027,3.15415 5.0138,7.4321 5.0138,11.89275 v 0 c 0,9.28883 -7.66403,16.81891 -17.11811,16.81891 v 0 c -9.45407,0 -17.11813,-7.53008 -17.11813,-16.81891 z" />
      <path
         mask="none"
         style="fill:#000000;fill-rule:evenodd"
         id="path99"
         d="m -1141.8888,405.08665 v 0 c 0,-9.28882 7.664,-16.81889 17.1181,-16.81889 v 0 c 4.54,0 8.894,1.77198 12.1043,4.92614 3.2103,3.15415 5.0138,7.4321 5.0138,11.89275 v 0 c 0,9.28883 -7.6641,16.81891 -17.1181,16.81891 v 0 c -9.4541,0 -17.1181,-7.53008 -17.1181,-16.81891 z" />
      <path
         mask="none"
         style="fill-rule:evenodd;stroke:#000000;stroke-width:1;stroke-linecap:butt;stroke-linejoin:round"
         id="path101"
         d="m -1141.8888,405.08665 v 0 c 0,-9.28882 7.664,-16.81889 17.1181,-16.81889 v 0 c 4.54,0 8.894,1.77198 12.1043,4.92614 3.2103,3.15415 5.0138,7.4321 5.0138,11.89275 v 0 c 0,9.28883 -7.6641,16.81891 -17.1181,16.81891 v 0 c -9.4541,0 -17.1181,-7.53008 -17.1181,-16.81891 z" />
      <path
         mask="none"
         style="fill:#000000;fill-rule:evenodd"
         id="path103"
         d="m -1108.6148,406.14706 v 0 c 0,-9.28882 7.6641,-16.81891 17.1181,-16.81891 v 0 c 4.54,0 8.8941,1.77199 12.1044,4.92615 3.2102,3.15416 5.0137,7.43211 5.0137,11.89276 v 0 c 0,9.28882 -7.664,16.81889 -17.1181,16.81889 v 0 c -9.454,0 -17.1181,-7.53007 -17.1181,-16.81889 z" />
      <path
         mask="none"
         style="fill-rule:evenodd;stroke:#000000;stroke-width:1;stroke-linecap:butt;stroke-linejoin:round"
         id="path105"
         d="m -1108.6148,406.14706 v 0 c 0,-9.28882 7.6641,-16.81891 17.1181,-16.81891 v 0 c 4.54,0 8.8941,1.77199 12.1044,4.92615 3.2102,3.15416 5.0137,7.43211 5.0137,11.89276 v 0 c 0,9.28882 -7.664,16.81889 -17.1181,16.81889 v 0 c -9.454,0 -17.1181,-7.53007 -17.1181,-16.81889 z" />
      <path
         mask="none"
         style="fill:#000000;fill-rule:evenodd"
         id="path107"
         d="m -997.58006,310.09691 v 0 c 0,-9.28882 7.66405,-16.8189 17.11812,-16.8189 v 0 c 4.54001,0 8.89406,1.77199 12.10432,4.92614 3.21028,3.15416 5.01378,7.43211 5.01378,11.89276 v 0 c 0,9.28882 -7.66403,16.81889 -17.1181,16.81889 v 0 c -9.45407,0 -17.11812,-7.53007 -17.11812,-16.81889 z" />
      <path
         mask="none"
         style="fill-rule:evenodd;stroke:#000000;stroke-width:1;stroke-linecap:butt;stroke-linejoin:round"
         id="path109"
         d="m -997.58006,310.09691 v 0 c 0,-9.28882 7.66405,-16.8189 17.11812,-16.8189 v 0 c 4.54001,0 8.89406,1.77199 12.10432,4.92614 3.21028,3.15416 5.01378,7.43211 5.01378,11.89276 v 0 c 0,9.28882 -7.66403,16.81889 -17.1181,16.81889 v 0 c -9.45407,0 -17.11812,-7.53007 -17.11812,-16.81889 z" />
      <path
         mask="none"
         style="fill:#000000;fill-rule:evenodd"
         id="path111"
         d="m -903.56772,463.50238 v 0 c 0,-9.28882 7.66403,-16.81888 17.1181,-16.81888 v 0 c 4.54001,0 8.89408,1.77197 12.10434,4.92615 3.21027,3.15414 5.01377,7.4321 5.01377,11.89273 v 0 c 0,9.28885 -7.66404,16.81891 -17.11811,16.81891 v 0 c -9.45407,0 -17.1181,-7.53006 -17.1181,-16.81891 z" />
      <path
         mask="none"
         style="fill-rule:evenodd;stroke:#000000;stroke-width:1;stroke-linecap:butt;stroke-linejoin:round"
         id="path113"
         d="m -903.56772,463.50238 v 0 c 0,-9.28882 7.66403,-16.81888 17.1181,-16.81888 v 0 c 4.54001,0 8.89408,1.77197 12.10434,4.92615 3.21027,3.15414 5.01377,7.4321 5.01377,11.89273 v 0 c 0,9.28885 -7.66404,16.81891 -17.11811,16.81891 v 0 c -9.45407,0 -17.1181,-7.53006 -17.1181,-16.81891 z" />
      <path
         mask="none"
         style="fill:#000000;fill-rule:evenodd"
         id="path115"
         d="m -1062.2673,509.01865 v 0 c 0,-9.28882 7.664,-16.81891 17.1181,-16.81891 v 0 c 4.54,0 8.8941,1.772 12.1043,4.92615 3.2103,3.15417 5.0138,7.43213 5.0138,11.89276 v 0 c 0,9.28882 -7.664,16.81891 -17.1181,16.81891 v 0 c -9.4541,0 -17.1181,-7.53009 -17.1181,-16.81891 z" />
      <path
         mask="none"
         style="fill-rule:evenodd;stroke:#000000;stroke-width:1;stroke-linecap:butt;stroke-linejoin:round"
         id="path117"
         d="m -1062.2673,509.01865 v 0 c 0,-9.28882 7.664,-16.81891 17.1181,-16.81891 v 0 c 4.54,0 8.8941,1.772 12.1043,4.92615 3.2103,3.15417 5.0138,7.43213 5.0138,11.89276 v 0 c 0,9.28882 -7.664,16.81891 -17.1181,16.81891 v 0 c -9.4541,0 -17.1181,-7.53009 -17.1181,-16.81891 z" />
    </g>
  </g>
</svg>
