<?xml version="1.0" encoding="UTF-8" standalone="no"?>
<!-- Generator: Adobe Illustrator 16.0.0, SVG Export Plug-In . SVG Version: 6.00 Build 0)  -->

<svg
   xmlns:dc="http://purl.org/dc/elements/1.1/"
   xmlns:cc="http://creativecommons.org/ns#"
   xmlns:rdf="http://www.w3.org/1999/02/22-rdf-syntax-ns#"
   xmlns:svg="http://www.w3.org/2000/svg"
   xmlns="http://www.w3.org/2000/svg"
   xmlns:xlink="http://www.w3.org/1999/xlink"
   xmlns:sodipodi="http://sodipodi.sourceforge.net/DTD/sodipodi-0.dtd"
   xmlns:inkscape="http://www.inkscape.org/namespaces/inkscape"
   version="1.1"
   id="Layer_1"
   x="0px"
   y="0px"
   width="639px"
   height="193px"
   viewBox="0 0 639 193"
   enable-background="new 0 0 639 193"
   xml:space="preserve"
   sodipodi:docname="fig_hh_a.svg"
   inkscape:version="0.92.2 5c3e80d, 2017-08-06"><metadata
     id="metadata498"><rdf:RDF><cc:Work
         rdf:about=""><dc:format>image/svg+xml</dc:format><dc:type
           rdf:resource="http://purl.org/dc/dcmitype/StillImage" /></cc:Work></rdf:RDF></metadata><defs
     id="defs496" /><sodipodi:namedview
     pagecolor="#ffffff"
     bordercolor="#666666"
     borderopacity="1"
     objecttolerance="10"
     gridtolerance="10"
     guidetolerance="10"
     inkscape:pageopacity="0"
     inkscape:pageshadow="2"
     inkscape:window-width="1422"
     inkscape:window-height="1126"
     id="namedview494"
     showgrid="false"
     inkscape:zoom="1.0140845"
     inkscape:cx="237.09374"
     inkscape:cy="163.83588"
     inkscape:window-x="0"
     inkscape:window-y="0"
     inkscape:window-maximized="0"
     inkscape:current-layer="g463" /><g
     id="g200"><line
       fill="none"
       stroke="#000000"
       stroke-width="2.0662"
       stroke-miterlimit="10"
       x1="35.113"
       y1="30.162"
       x2="35.113"
       y2="87.327"
       id="line2" /><line
       fill="none"
       stroke="#000000"
       stroke-width="2.0662"
       stroke-miterlimit="10"
       x1="35.113"
       y1="30.162"
       x2="254.824"
       y2="30.162"
       id="line4" /><line
       fill="none"
       stroke="#000000"
       stroke-width="2.0662"
       stroke-miterlimit="10"
       x1="35.113"
       y1="104.546"
       x2="35.113"
       y2="160.334"
       id="line6" /><line
       fill="none"
       stroke="#000000"
       stroke-width="2.0662"
       stroke-miterlimit="10"
       x1="35.113"
       y1="160.334"
       x2="254.824"
       y2="160.334"
       id="line8" /><line
       fill="none"
       stroke="#000000"
       stroke-width="2.0662"
       stroke-miterlimit="10"
       x1="143.934"
       y1="8.124"
       x2="143.934"
       y2="30.163"
       id="line10" /><line
       fill="none"
       stroke="#000000"
       stroke-width="2.0662"
       stroke-miterlimit="10"
       x1="143.934"
       y1="161.024"
       x2="143.934"
       y2="183.065"
       id="line12" /><line
       fill="none"
       stroke="#000000"
       stroke-width="2.0662"
       stroke-miterlimit="10"
       x1="18.824"
       y1="86.985"
       x2="51.197"
       y2="86.985"
       id="line14" /><line
       fill="none"
       stroke="#000000"
       stroke-width="2.0662"
       stroke-miterlimit="10"
       x1="18.824"
       y1="104.205"
       x2="51.197"
       y2="104.205"
       id="line16" /><circle
       fill="#FFFFFF"
       stroke="#000000"
       stroke-width="2.0662"
       stroke-miterlimit="10"
       cx="143.933"
       cy="183.065"
       r="5.51"
       id="circle18" /><circle
       fill="#FFFFFF"
       stroke="#000000"
       stroke-width="2.0662"
       stroke-miterlimit="10"
       cx="143.933"
       cy="8.124"
       r="5.51"
       id="circle20" /><g
       id="g28"><path
         d="M119.93,48.731l1.025,0.152c0.043,0.316,0.162,0.547,0.357,0.691c0.262,0.195,0.619,0.293,1.072,0.293    c0.488,0,0.865-0.098,1.131-0.293s0.445-0.469,0.539-0.82c0.055-0.215,0.08-0.666,0.076-1.354    c-0.461,0.543-1.035,0.814-1.723,0.814c-0.855,0-1.518-0.309-1.986-0.926s-0.703-1.357-0.703-2.221    c0-0.594,0.107-1.142,0.322-1.644s0.526-0.89,0.935-1.163s0.888-0.41,1.438-0.41c0.734,0,1.34,0.297,1.816,0.891v-0.75h0.973    v5.379c0,0.969-0.099,1.655-0.296,2.06s-0.51,0.724-0.938,0.958s-0.954,0.352-1.579,0.352c-0.742,0-1.342-0.167-1.799-0.501    S119.914,49.403,119.93,48.731z M120.803,44.993c0,0.816,0.162,1.412,0.486,1.787s0.73,0.562,1.219,0.562    c0.484,0,0.891-0.187,1.219-0.56s0.492-0.958,0.492-1.755c0-0.762-0.169-1.336-0.507-1.723s-0.745-0.58-1.222-0.58    c-0.469,0-0.867,0.19-1.195,0.571S120.803,44.243,120.803,44.993z"
         id="path22" /><path
         d="M126.92,48.215v-8.59h1.166l4.512,6.744v-6.744h1.09v8.59h-1.166l-4.512-6.75v6.75H126.92z"
         id="path24" /><path
         d="M139.523,47.448c-0.391,0.332-0.767,0.566-1.128,0.703s-0.749,0.205-1.163,0.205c-0.684,0-1.209-0.167-1.576-0.501    s-0.551-0.761-0.551-1.28c0-0.305,0.069-0.583,0.208-0.835s0.32-0.454,0.545-0.606s0.478-0.268,0.759-0.346    c0.207-0.055,0.52-0.107,0.938-0.158c0.852-0.102,1.479-0.223,1.881-0.363c0.004-0.145,0.006-0.236,0.006-0.275    c0-0.43-0.1-0.732-0.299-0.908c-0.27-0.238-0.67-0.357-1.201-0.357c-0.496,0-0.862,0.087-1.099,0.261s-0.411,0.481-0.524,0.923    l-1.031-0.141c0.094-0.441,0.248-0.798,0.463-1.069s0.525-0.48,0.932-0.627s0.877-0.22,1.412-0.22    c0.531,0,0.963,0.062,1.295,0.188s0.576,0.282,0.732,0.472s0.266,0.429,0.328,0.718c0.035,0.18,0.053,0.504,0.053,0.973v1.406    c0,0.98,0.022,1.601,0.067,1.86s0.134,0.509,0.267,0.747h-1.102C139.625,47.997,139.555,47.741,139.523,47.448z M139.436,45.092    c-0.383,0.156-0.957,0.289-1.723,0.398c-0.434,0.062-0.74,0.133-0.92,0.211s-0.318,0.192-0.416,0.343s-0.146,0.317-0.146,0.501    c0,0.281,0.106,0.516,0.319,0.703s0.524,0.281,0.935,0.281c0.406,0,0.768-0.089,1.084-0.267s0.549-0.421,0.697-0.729    c0.113-0.238,0.17-0.59,0.17-1.055V45.092z"
         id="path26" /></g><g
       id="g40"><path
         d="M270.076,48.731l1.025,0.152c0.043,0.316,0.162,0.547,0.357,0.691c0.262,0.195,0.619,0.293,1.072,0.293    c0.488,0,0.865-0.098,1.131-0.293s0.445-0.469,0.539-0.82c0.055-0.215,0.08-0.666,0.076-1.354    c-0.461,0.543-1.035,0.814-1.723,0.814c-0.855,0-1.518-0.309-1.986-0.926s-0.703-1.357-0.703-2.221    c0-0.594,0.107-1.142,0.322-1.644s0.526-0.89,0.935-1.163s0.888-0.41,1.438-0.41c0.734,0,1.34,0.297,1.816,0.891v-0.75h0.973    v5.379c0,0.969-0.099,1.655-0.296,2.06s-0.51,0.724-0.938,0.958s-0.954,0.352-1.579,0.352c-0.742,0-1.342-0.167-1.799-0.501    S270.061,49.403,270.076,48.731z M270.949,44.993c0,0.816,0.162,1.412,0.486,1.787s0.73,0.562,1.219,0.562    c0.484,0,0.891-0.187,1.219-0.56s0.492-0.958,0.492-1.755c0-0.762-0.169-1.336-0.507-1.723s-0.745-0.58-1.222-0.58    c-0.469,0-0.867,0.19-1.195,0.571S270.949,44.243,270.949,44.993z"
         id="path30" /><path
         d="M276.92,48.215v-8.59h1.055v8.59H276.92z"
         id="path32" /><path
         d="M283.869,46.211l1.09,0.135c-0.172,0.637-0.49,1.131-0.955,1.482s-1.059,0.527-1.781,0.527    c-0.91,0-1.632-0.28-2.165-0.841s-0.8-1.347-0.8-2.358c0-1.047,0.27-1.859,0.809-2.438s1.238-0.867,2.098-0.867    c0.832,0,1.512,0.283,2.039,0.85s0.791,1.363,0.791,2.391c0,0.062-0.002,0.156-0.006,0.281h-4.641    c0.039,0.684,0.232,1.207,0.58,1.57s0.781,0.545,1.301,0.545c0.387,0,0.717-0.102,0.99-0.305S283.709,46.657,283.869,46.211z     M280.406,44.506h3.475c-0.047-0.523-0.18-0.916-0.398-1.178c-0.336-0.406-0.771-0.609-1.307-0.609    c-0.484,0-0.892,0.162-1.222,0.486S280.441,43.963,280.406,44.506z"
         id="path34" /><path
         d="M290.344,47.448c-0.391,0.332-0.767,0.566-1.128,0.703s-0.749,0.205-1.163,0.205c-0.684,0-1.209-0.167-1.576-0.501    s-0.551-0.761-0.551-1.28c0-0.305,0.069-0.583,0.208-0.835s0.32-0.454,0.545-0.606s0.478-0.268,0.759-0.346    c0.207-0.055,0.52-0.107,0.938-0.158c0.852-0.102,1.479-0.223,1.881-0.363c0.004-0.145,0.006-0.236,0.006-0.275    c0-0.43-0.1-0.732-0.299-0.908c-0.27-0.238-0.67-0.357-1.201-0.357c-0.496,0-0.862,0.087-1.099,0.261s-0.411,0.481-0.524,0.923    l-1.031-0.141c0.094-0.441,0.248-0.798,0.463-1.069s0.525-0.48,0.932-0.627s0.877-0.22,1.412-0.22    c0.531,0,0.963,0.062,1.295,0.188s0.576,0.282,0.732,0.472s0.266,0.429,0.328,0.718c0.035,0.18,0.053,0.504,0.053,0.973v1.406    c0,0.98,0.022,1.601,0.067,1.86s0.134,0.509,0.267,0.747h-1.102C290.445,47.997,290.375,47.741,290.344,47.448z M290.256,45.092    c-0.383,0.156-0.957,0.289-1.723,0.398c-0.434,0.062-0.74,0.133-0.92,0.211s-0.318,0.192-0.416,0.343s-0.146,0.317-0.146,0.501    c0,0.281,0.106,0.516,0.319,0.703s0.524,0.281,0.935,0.281c0.406,0,0.768-0.089,1.084-0.267s0.549-0.421,0.697-0.729    c0.113-0.238,0.17-0.59,0.17-1.055V45.092z"
         id="path36" /><path
         d="M292.963,48.215v-8.59h1.055v4.898l2.496-2.531h1.365l-2.379,2.309l2.619,3.914h-1.301l-2.057-3.182l-0.744,0.715v2.467    H292.963z"
         id="path38" /></g><g
       id="g46"><path
         d="M196.035,48.731l1.025,0.152c0.043,0.316,0.162,0.547,0.357,0.691c0.262,0.195,0.619,0.293,1.072,0.293    c0.488,0,0.865-0.098,1.131-0.293s0.445-0.469,0.539-0.82c0.055-0.215,0.08-0.666,0.076-1.354    c-0.461,0.543-1.035,0.814-1.723,0.814c-0.855,0-1.518-0.309-1.986-0.926s-0.703-1.357-0.703-2.221    c0-0.594,0.107-1.142,0.322-1.644s0.526-0.89,0.935-1.163s0.888-0.41,1.438-0.41c0.734,0,1.34,0.297,1.816,0.891v-0.75h0.973    v5.379c0,0.969-0.099,1.655-0.296,2.06s-0.51,0.724-0.938,0.958s-0.954,0.352-1.579,0.352c-0.742,0-1.342-0.167-1.799-0.501    S196.02,49.403,196.035,48.731z M196.908,44.993c0,0.816,0.162,1.412,0.486,1.787s0.73,0.562,1.219,0.562    c0.484,0,0.891-0.187,1.219-0.56s0.492-0.958,0.492-1.755c0-0.762-0.169-1.336-0.507-1.723s-0.745-0.58-1.222-0.58    c-0.469,0-0.867,0.19-1.195,0.571S196.908,44.243,196.908,44.993z"
         id="path42" /><path
         d="M202.99,48.215v-8.59h1.137v4.26l4.266-4.26h1.541l-3.604,3.48l3.762,5.109h-1.5l-3.059-4.348l-1.406,1.371v2.977H202.99z    "
         id="path44" /></g><g
       id="g62"><path
         d="M157.611,9.287c0-1.152,0.32-2.006,0.961-2.561c0.535-0.461,1.188-0.691,1.957-0.691c0.855,0,1.555,0.28,2.098,0.841    s0.814,1.335,0.814,2.323c0,0.801-0.12,1.431-0.36,1.89s-0.59,0.815-1.049,1.069s-0.96,0.381-1.503,0.381    c-0.871,0-1.575-0.279-2.112-0.838S157.611,10.337,157.611,9.287z M158.695,9.287c0,0.797,0.174,1.394,0.521,1.79    s0.785,0.595,1.312,0.595c0.523,0,0.959-0.199,1.307-0.598s0.521-1.006,0.521-1.822c0-0.77-0.175-1.353-0.524-1.749    s-0.784-0.595-1.304-0.595c-0.527,0-0.965,0.197-1.312,0.592S158.695,8.49,158.695,9.287z"
         id="path48" /><path
         d="M168.755,12.398v-0.914c-0.484,0.703-1.143,1.055-1.975,1.055c-0.367,0-0.71-0.07-1.028-0.211s-0.555-0.317-0.709-0.53    s-0.263-0.474-0.325-0.782c-0.043-0.207-0.064-0.535-0.064-0.984V6.175h1.055v3.451c0,0.551,0.021,0.922,0.064,1.113    c0.066,0.277,0.207,0.495,0.422,0.653s0.48,0.237,0.797,0.237s0.613-0.081,0.891-0.243s0.474-0.383,0.589-0.662    s0.173-0.685,0.173-1.216V6.175h1.055v6.223H168.755z"
         id="path50" /><path
         d="M173.654,11.455l0.152,0.932c-0.297,0.062-0.562,0.094-0.797,0.094c-0.383,0-0.68-0.061-0.891-0.182    s-0.359-0.28-0.445-0.478s-0.129-0.612-0.129-1.245v-3.58h-0.773v-0.82h0.773V4.634l1.049-0.633v2.174h1.061v0.82h-1.061v3.639    c0,0.301,0.019,0.494,0.056,0.58s0.098,0.154,0.182,0.205s0.204,0.076,0.36,0.076C173.308,11.496,173.462,11.482,173.654,11.455z"
         id="path52" /><path
         d="M174.263,10.541l1.043-0.164c0.059,0.418,0.222,0.738,0.489,0.961s0.642,0.334,1.122,0.334    c0.484,0,0.844-0.099,1.078-0.296s0.352-0.429,0.352-0.694c0-0.238-0.104-0.426-0.311-0.562c-0.145-0.094-0.504-0.213-1.078-0.357    c-0.773-0.195-1.31-0.364-1.608-0.507s-0.525-0.34-0.68-0.592s-0.231-0.53-0.231-0.835c0-0.277,0.063-0.534,0.19-0.771    s0.3-0.433,0.519-0.589c0.164-0.121,0.388-0.224,0.671-0.308s0.587-0.126,0.911-0.126c0.488,0,0.917,0.07,1.286,0.211    s0.642,0.331,0.817,0.571s0.297,0.562,0.363,0.964l-1.031,0.141c-0.047-0.32-0.183-0.57-0.407-0.75s-0.542-0.27-0.952-0.27    c-0.484,0-0.83,0.08-1.037,0.24s-0.311,0.348-0.311,0.562c0,0.137,0.043,0.26,0.129,0.369c0.086,0.113,0.221,0.207,0.404,0.281    c0.105,0.039,0.416,0.129,0.932,0.27c0.746,0.199,1.267,0.362,1.562,0.489s0.526,0.312,0.694,0.554s0.252,0.543,0.252,0.902    c0,0.352-0.103,0.683-0.308,0.993s-0.501,0.551-0.888,0.721s-0.824,0.255-1.312,0.255c-0.809,0-1.425-0.168-1.849-0.504    S174.38,11.201,174.263,10.541z"
         id="path54" /><path
         d="M180.691,5.021V3.808h1.055v1.213H180.691z M180.691,12.398V6.175h1.055v6.223H180.691z"
         id="path56" /><path
         d="M187.388,12.398v-0.785c-0.395,0.617-0.975,0.926-1.74,0.926c-0.496,0-0.952-0.137-1.368-0.41s-0.738-0.655-0.967-1.146    s-0.343-1.054-0.343-1.69c0-0.621,0.104-1.185,0.311-1.69s0.518-0.894,0.932-1.163s0.877-0.404,1.389-0.404    c0.375,0,0.709,0.079,1.002,0.237s0.531,0.364,0.715,0.618V3.808h1.049v8.59H187.388z M184.054,9.292    c0,0.797,0.168,1.393,0.504,1.787s0.732,0.592,1.189,0.592c0.461,0,0.853-0.188,1.175-0.565s0.483-0.952,0.483-1.726    c0-0.852-0.164-1.477-0.492-1.875s-0.732-0.598-1.213-0.598c-0.469,0-0.86,0.191-1.175,0.574S184.054,8.468,184.054,9.292z"
         id="path58" /><path
         d="M194.285,10.394l1.09,0.135c-0.172,0.637-0.49,1.131-0.955,1.482s-1.059,0.527-1.781,0.527    c-0.91,0-1.632-0.28-2.165-0.841s-0.8-1.347-0.8-2.358c0-1.047,0.27-1.859,0.809-2.438s1.238-0.867,2.098-0.867    c0.832,0,1.512,0.283,2.039,0.85s0.791,1.363,0.791,2.391c0,0.062-0.002,0.156-0.006,0.281h-4.641    c0.039,0.684,0.232,1.207,0.58,1.57s0.781,0.545,1.301,0.545c0.387,0,0.717-0.102,0.99-0.305S194.125,10.839,194.285,10.394z     M190.822,8.689h3.475c-0.047-0.523-0.18-0.916-0.398-1.178c-0.336-0.406-0.771-0.609-1.307-0.609    c-0.484,0-0.892,0.162-1.222,0.486S190.857,8.146,190.822,8.689z"
         id="path60" /></g><g
       id="g76"><path
         d="M158.009,180.996v-1.213h1.055v1.213H158.009z M158.009,188.373v-6.223h1.055v6.223H158.009z"
         id="path64" /><path
         d="M160.669,188.373v-6.223h0.949v0.885c0.457-0.684,1.117-1.025,1.98-1.025c0.375,0,0.72,0.067,1.034,0.202    s0.55,0.312,0.706,0.53s0.266,0.479,0.328,0.779c0.039,0.195,0.059,0.537,0.059,1.025v3.826h-1.055v-3.785    c0-0.43-0.041-0.751-0.123-0.964s-0.228-0.383-0.437-0.51s-0.454-0.19-0.735-0.19c-0.449,0-0.837,0.143-1.163,0.428    s-0.489,0.826-0.489,1.623v3.398H160.669z"
         id="path66" /><path
         d="M166.921,186.516l1.043-0.164c0.059,0.418,0.222,0.738,0.489,0.961s0.642,0.334,1.122,0.334    c0.484,0,0.844-0.099,1.078-0.296s0.352-0.429,0.352-0.694c0-0.238-0.104-0.426-0.311-0.562c-0.145-0.094-0.504-0.213-1.078-0.357    c-0.773-0.195-1.31-0.364-1.608-0.507s-0.525-0.34-0.68-0.592s-0.231-0.53-0.231-0.835c0-0.277,0.063-0.534,0.19-0.771    s0.3-0.433,0.519-0.589c0.164-0.121,0.388-0.224,0.671-0.308s0.587-0.126,0.911-0.126c0.488,0,0.917,0.07,1.286,0.211    s0.642,0.331,0.817,0.571s0.297,0.562,0.363,0.964l-1.031,0.141c-0.047-0.32-0.183-0.57-0.407-0.75s-0.542-0.27-0.952-0.27    c-0.484,0-0.83,0.08-1.037,0.24s-0.311,0.348-0.311,0.562c0,0.137,0.043,0.26,0.129,0.369c0.086,0.113,0.221,0.207,0.404,0.281    c0.105,0.039,0.416,0.129,0.932,0.27c0.746,0.199,1.267,0.362,1.562,0.489s0.526,0.312,0.694,0.554s0.252,0.543,0.252,0.902    c0,0.352-0.103,0.683-0.308,0.993s-0.501,0.551-0.888,0.721s-0.824,0.255-1.312,0.255c-0.809,0-1.425-0.168-1.849-0.504    S167.039,187.176,166.921,186.516z"
         id="path68" /><path
         d="M173.349,180.996v-1.213h1.055v1.213H173.349z M173.349,188.373v-6.223h1.055v6.223H173.349z"
         id="path70" /><path
         d="M180.046,188.373v-0.785c-0.395,0.617-0.975,0.926-1.74,0.926c-0.496,0-0.952-0.137-1.368-0.41s-0.738-0.655-0.967-1.146    s-0.343-1.054-0.343-1.69c0-0.621,0.104-1.185,0.311-1.69s0.518-0.894,0.932-1.163s0.877-0.404,1.389-0.404    c0.375,0,0.709,0.079,1.002,0.237s0.531,0.364,0.715,0.618v-3.082h1.049v8.59H180.046z M176.712,185.268    c0,0.797,0.168,1.393,0.504,1.787s0.732,0.592,1.189,0.592c0.461,0,0.853-0.188,1.175-0.565s0.483-0.952,0.483-1.726    c0-0.852-0.164-1.477-0.492-1.875s-0.732-0.598-1.213-0.598c-0.469,0-0.86,0.191-1.175,0.574S176.712,184.443,176.712,185.268z"
         id="path72" /><path
         d="M186.943,186.369l1.09,0.135c-0.172,0.637-0.49,1.131-0.955,1.482s-1.059,0.527-1.781,0.527    c-0.91,0-1.632-0.28-2.165-0.841s-0.8-1.347-0.8-2.358c0-1.047,0.27-1.859,0.809-2.438s1.238-0.867,2.098-0.867    c0.832,0,1.512,0.283,2.039,0.85s0.791,1.363,0.791,2.391c0,0.062-0.002,0.156-0.006,0.281h-4.641    c0.039,0.684,0.232,1.207,0.58,1.57s0.781,0.545,1.301,0.545c0.387,0,0.717-0.102,0.99-0.305S186.783,186.814,186.943,186.369z     M183.48,184.664h3.475c-0.047-0.523-0.18-0.916-0.398-1.178c-0.336-0.406-0.771-0.609-1.307-0.609    c-0.484,0-0.892,0.162-1.222,0.486S183.515,184.121,183.48,184.664z"
         id="path74" /></g><g
       id="g82"><path
         d="M9.988,77.921l1.137,0.287c-0.238,0.934-0.667,1.646-1.286,2.136s-1.376,0.735-2.271,0.735    c-0.926,0-1.679-0.188-2.259-0.565s-1.021-0.923-1.324-1.638s-0.454-1.482-0.454-2.303c0-0.895,0.171-1.675,0.513-2.341    s0.828-1.172,1.459-1.518s1.325-0.519,2.083-0.519c0.859,0,1.582,0.219,2.168,0.656s0.994,1.053,1.225,1.846l-1.119,0.264    c-0.199-0.625-0.488-1.08-0.867-1.365s-0.855-0.428-1.43-0.428c-0.66,0-1.212,0.158-1.655,0.475s-0.755,0.741-0.935,1.274    s-0.27,1.083-0.27,1.649c0,0.73,0.106,1.368,0.319,1.913s0.544,0.952,0.993,1.222s0.936,0.404,1.459,0.404    c0.637,0,1.176-0.184,1.617-0.551S9.832,78.644,9.988,77.921z"
         id="path78" /><path
         d="M12.391,80.933V74.71h0.943v0.873c0.195-0.305,0.455-0.55,0.779-0.735s0.693-0.278,1.107-0.278    c0.461,0,0.839,0.096,1.134,0.287s0.503,0.459,0.624,0.803c0.492-0.727,1.133-1.09,1.922-1.09c0.617,0,1.092,0.171,1.424,0.513    s0.498,0.868,0.498,1.579v4.271h-1.049v-3.92c0-0.422-0.034-0.726-0.103-0.911s-0.192-0.335-0.372-0.448s-0.391-0.17-0.633-0.17    c-0.438,0-0.801,0.146-1.09,0.437s-0.434,0.757-0.434,1.397v3.615h-1.055V76.89c0-0.469-0.086-0.82-0.258-1.055    s-0.453-0.352-0.844-0.352c-0.297,0-0.571,0.078-0.823,0.234s-0.435,0.385-0.548,0.686s-0.17,0.734-0.17,1.301v3.229H12.391z"
         id="path80" /></g><g
       id="g112"><line
         fill="none"
         stroke="#000000"
         stroke-width="2.0662"
         stroke-miterlimit="10"
         x1="254.133"
         y1="138.296"
         x2="254.133"
         y2="160.337"
         id="line84" /><line
         fill="none"
         stroke="#000000"
         stroke-width="4.1325"
         stroke-miterlimit="10"
         x1="245.871"
         y1="138.643"
         x2="263.089"
         y2="138.643"
         id="line86" /><line
         fill="none"
         stroke="#000000"
         stroke-width="2.0662"
         stroke-linecap="round"
         stroke-miterlimit="10"
         x1="254.133"
         y1="105.927"
         x2="254.133"
         y2="127.967"
         id="line88" /><line
         fill="none"
         stroke="#000000"
         stroke-width="2.0662"
         stroke-miterlimit="10"
         x1="237.808"
         y1="129.002"
         x2="270.182"
         y2="129.002"
         id="line90" /><line
         fill="none"
         stroke="#000000"
         stroke-width="2.0662"
         stroke-miterlimit="10"
         x1="254.133"
         y1="29.476"
         x2="254.133"
         y2="48.505"
         id="line92" /><g
         id="g110"><line
           fill="none"
           stroke="#000000"
           stroke-width="2.0662"
           stroke-linecap="round"
           stroke-miterlimit="10"
           x1="260.716"
           y1="100.98"
           x2="247.286"
           y2="93.228"
           id="line94" /><line
           fill="none"
           stroke="#000000"
           stroke-width="2.0662"
           stroke-linecap="round"
           stroke-miterlimit="10"
           x1="246.769"
           y1="92.937"
           x2="260.196"
           y2="85.182"
           id="line96" /><line
           fill="none"
           stroke="#000000"
           stroke-width="2.0662"
           stroke-linecap="round"
           stroke-miterlimit="10"
           x1="254.172"
           y1="105.119"
           x2="260.888"
           y2="101.24"
           id="line98" /><line
           fill="none"
           stroke="#000000"
           stroke-width="2.0662"
           stroke-linecap="round"
           stroke-miterlimit="10"
           x1="260.888"
           y1="52.145"
           x2="254.172"
           y2="48.271"
           id="line100" /><line
           fill="none"
           stroke="#000000"
           stroke-width="2.0662"
           stroke-linecap="round"
           stroke-miterlimit="10"
           x1="260.716"
           y1="84.679"
           x2="247.286"
           y2="76.926"
           id="line102" /><line
           fill="none"
           stroke="#000000"
           stroke-width="2.0662"
           stroke-linecap="round"
           stroke-miterlimit="10"
           x1="246.769"
           y1="76.635"
           x2="260.196"
           y2="68.88"
           id="line104" /><line
           fill="none"
           stroke="#000000"
           stroke-width="2.0662"
           stroke-linecap="round"
           stroke-miterlimit="10"
           x1="260.716"
           y1="68.406"
           x2="247.286"
           y2="60.655"
           id="line106" /><line
           fill="none"
           stroke="#000000"
           stroke-width="2.0662"
           stroke-linecap="round"
           stroke-miterlimit="10"
           x1="246.769"
           y1="60.364"
           x2="260.196"
           y2="52.607"
           id="line108" /></g></g><line
       fill="none"
       stroke="#000000"
       stroke-width="2.0662"
       stroke-miterlimit="10"
       x1="180.781"
       y1="138.296"
       x2="180.781"
       y2="160.337"
       id="line114" /><line
       fill="none"
       stroke="#000000"
       stroke-width="4.1325"
       stroke-miterlimit="10"
       x1="172.52"
       y1="138.643"
       x2="189.737"
       y2="138.643"
       id="line116" /><line
       fill="none"
       stroke="#000000"
       stroke-width="2.0662"
       stroke-linecap="round"
       stroke-miterlimit="10"
       x1="180.781"
       y1="105.927"
       x2="180.781"
       y2="127.967"
       id="line118" /><line
       fill="none"
       stroke="#000000"
       stroke-width="2.0662"
       stroke-miterlimit="10"
       x1="164.457"
       y1="129.002"
       x2="196.831"
       y2="129.002"
       id="line120" /><line
       fill="none"
       stroke="#000000"
       stroke-width="2.0662"
       stroke-miterlimit="10"
       x1="180.781"
       y1="29.476"
       x2="180.781"
       y2="48.505"
       id="line122" /><g
       id="g140"><line
         fill="none"
         stroke="#000000"
         stroke-width="2.0662"
         stroke-linecap="round"
         stroke-miterlimit="10"
         x1="187.362"
         y1="100.98"
         x2="173.932"
         y2="93.228"
         id="line124" /><line
         fill="none"
         stroke="#000000"
         stroke-width="2.0662"
         stroke-linecap="round"
         stroke-miterlimit="10"
         x1="173.416"
         y1="92.937"
         x2="186.843"
         y2="85.182"
         id="line126" /><line
         fill="none"
         stroke="#000000"
         stroke-width="2.0662"
         stroke-linecap="round"
         stroke-miterlimit="10"
         x1="180.818"
         y1="105.119"
         x2="187.535"
         y2="101.24"
         id="line128" /><line
         fill="none"
         stroke="#000000"
         stroke-width="2.0662"
         stroke-linecap="round"
         stroke-miterlimit="10"
         x1="187.535"
         y1="52.145"
         x2="180.818"
         y2="48.271"
         id="line130" /><line
         fill="none"
         stroke="#000000"
         stroke-width="2.0662"
         stroke-linecap="round"
         stroke-miterlimit="10"
         x1="187.362"
         y1="84.679"
         x2="173.932"
         y2="76.926"
         id="line132" /><line
         fill="none"
         stroke="#000000"
         stroke-width="2.0662"
         stroke-linecap="round"
         stroke-miterlimit="10"
         x1="173.416"
         y1="76.635"
         x2="186.843"
         y2="68.88"
         id="line134" /><line
         fill="none"
         stroke="#000000"
         stroke-width="2.0662"
         stroke-linecap="round"
         stroke-miterlimit="10"
         x1="187.362"
         y1="68.406"
         x2="173.932"
         y2="60.655"
         id="line136" /><line
         fill="none"
         stroke="#000000"
         stroke-width="2.0662"
         stroke-linecap="round"
         stroke-miterlimit="10"
         x1="173.416"
         y1="60.364"
         x2="186.843"
         y2="52.607"
         id="line138" /></g><line
       fill="none"
       stroke="#000000"
       stroke-width="2.0662"
       stroke-miterlimit="10"
       x1="105.623"
       y1="138.296"
       x2="105.623"
       y2="160.337"
       id="line142" /><line
       fill="none"
       stroke="#000000"
       stroke-width="4.1325"
       stroke-miterlimit="10"
       x1="97.36"
       y1="129.002"
       x2="114.578"
       y2="129.002"
       id="line144" /><line
       fill="none"
       stroke="#000000"
       stroke-width="2.0662"
       stroke-linecap="round"
       stroke-miterlimit="10"
       x1="105.623"
       y1="105.927"
       x2="105.623"
       y2="127.967"
       id="line146" /><line
       fill="none"
       stroke="#000000"
       stroke-width="2.0662"
       stroke-miterlimit="10"
       x1="105.623"
       y1="29.476"
       x2="105.623"
       y2="48.505"
       id="line148" /><g
       id="g166"><line
         fill="none"
         stroke="#000000"
         stroke-width="2.0662"
         stroke-linecap="round"
         stroke-miterlimit="10"
         x1="112.206"
         y1="100.98"
         x2="98.774"
         y2="93.228"
         id="line150" /><line
         fill="none"
         stroke="#000000"
         stroke-width="2.0662"
         stroke-linecap="round"
         stroke-miterlimit="10"
         x1="98.258"
         y1="92.937"
         x2="111.687"
         y2="85.182"
         id="line152" /><line
         fill="none"
         stroke="#000000"
         stroke-width="2.0662"
         stroke-linecap="round"
         stroke-miterlimit="10"
         x1="105.662"
         y1="105.119"
         x2="112.376"
         y2="101.24"
         id="line154" /><line
         fill="none"
         stroke="#000000"
         stroke-width="2.0662"
         stroke-linecap="round"
         stroke-miterlimit="10"
         x1="112.376"
         y1="52.145"
         x2="105.662"
         y2="48.271"
         id="line156" /><line
         fill="none"
         stroke="#000000"
         stroke-width="2.0662"
         stroke-linecap="round"
         stroke-miterlimit="10"
         x1="112.206"
         y1="84.679"
         x2="98.774"
         y2="76.926"
         id="line158" /><line
         fill="none"
         stroke="#000000"
         stroke-width="2.0662"
         stroke-linecap="round"
         stroke-miterlimit="10"
         x1="98.258"
         y1="76.635"
         x2="111.687"
         y2="68.88"
         id="line160" /><line
         fill="none"
         stroke="#000000"
         stroke-width="2.0662"
         stroke-linecap="round"
         stroke-miterlimit="10"
         x1="112.206"
         y1="68.406"
         x2="98.774"
         y2="60.655"
         id="line162" /><line
         fill="none"
         stroke="#000000"
         stroke-width="2.0662"
         stroke-linecap="round"
         stroke-miterlimit="10"
         x1="98.258"
         y1="60.364"
         x2="111.687"
         y2="52.607"
         id="line164" /></g><line
       fill="none"
       stroke="#000000"
       stroke-width="2.0662"
       stroke-miterlimit="10"
       x1="89.297"
       y1="138.643"
       x2="121.67"
       y2="138.643"
       id="line168" /><g
       id="g178"
       style="fill:#000000"><g
         id="g176"
         style="fill:#000000"><line
           fill="none"
           stroke="#646464"
           stroke-width="1.9454"
           stroke-miterlimit="10"
           x1="85.147"
           y1="101.279"
           x2="122.417"
           y2="63.863"
           id="line170"
           style="fill:#000000;stroke:#000000;stroke-opacity:1" /><g
           id="g174"
           style="fill:#000000"><polygon
             fill="#646464"
             points="125.827,70.062 129.314,56.939 116.205,60.479     "
             id="polygon172"
             style="fill:#000000" /></g></g></g><g
       id="g188"
       style="fill:#000000"><g
         id="g186"
         style="fill:#000000"><line
           fill="none"
           stroke="#646464"
           stroke-width="1.9454"
           stroke-miterlimit="10"
           x1="160.049"
           y1="101.279"
           x2="197.318"
           y2="63.863"
           id="line180"
           style="fill:#000000;stroke:#000000;stroke-opacity:1" /><g
           id="g184"
           style="fill:#000000"><polygon
             fill="#646464"
             points="200.727,70.062 204.214,56.939 191.104,60.479     "
             id="polygon182"
             style="fill:#000000" /></g></g></g><g
       id="g198"
       style="fill:#000000"><g
         id="g196"
         style="fill:#000000"><line
           fill="none"
           stroke="#646464"
           stroke-width="1.9454"
           stroke-miterlimit="10"
           x1="233.917"
           y1="101.279"
           x2="271.187"
           y2="63.863"
           id="line190"
           style="fill:#000000;stroke:#000000;stroke-opacity:1" /><g
           id="g194"
           style="fill:#000000"><polygon
             fill="#646464"
             points="274.596,70.062 278.083,56.939 264.974,60.479     "
             id="polygon192"
             style="fill:#000000" /></g></g></g></g><g
     id="figure_1"><g
       id="patch_1"><path
         fill="none"
         d="M324.672,197.499h287.594V21.133H324.672V197.499z"
         id="path202" /></g><g
       id="axes_1"><g
         id="patch_2"><path
           fill="none"
           d="M377.486,122.91h224.078V31.833H377.486V122.91z"
           id="path205" /></g><g
         id="matplotlib.axis_1" /><g
         id="matplotlib.axis_2"><g
           id="ytick_1"><g
             id="line2d_1"><g
               id="g212"><g
                 id="g210"><path
                   id="m0818924925"
                   stroke="#000000"
                   stroke-width="1.5"
                   stroke-linejoin="round"
                   d="M377.486,122.646h-3.5" /></g></g></g><g
             id="text_1"><g
               enable-background="new    "
               id="g221"><path
                 d="M356.471,123.169h-5.672v-0.984h5.672V123.169z"
                 id="path215" /><path
                 d="M359.26,122.255c-0.438-0.16-0.762-0.389-0.973-0.686s-0.316-0.652-0.316-1.066c0-0.625,0.225-1.15,0.674-1.576        s1.047-0.639,1.793-0.639c0.75,0,1.354,0.218,1.811,0.653s0.686,0.966,0.686,1.591c0,0.398-0.104,0.745-0.313,1.04        s-0.526,0.522-0.952,0.683c0.527,0.172,0.929,0.449,1.204,0.832s0.413,0.84,0.413,1.371c0,0.734-0.26,1.352-0.779,1.852        s-1.203,0.75-2.051,0.75s-1.531-0.251-2.051-0.753s-0.779-1.128-0.779-1.878c0-0.559,0.142-1.026,0.425-1.403        S358.736,122.392,359.26,122.255z M358.709,124.435c0,0.301,0.071,0.592,0.214,0.873s0.354,0.499,0.636,0.653        s0.584,0.231,0.908,0.231c0.504,0,0.92-0.162,1.248-0.486s0.492-0.736,0.492-1.236c0-0.508-0.169-0.928-0.507-1.26        s-0.761-0.498-1.269-0.498c-0.496,0-0.907,0.164-1.233,0.492S358.709,123.942,358.709,124.435z M359.049,120.468        c0,0.406,0.131,0.738,0.393,0.996s0.602,0.387,1.02,0.387c0.406,0,0.739-0.128,0.999-0.384s0.39-0.569,0.39-0.94        c0-0.387-0.134-0.712-0.401-0.976s-0.601-0.396-0.999-0.396c-0.402,0-0.736,0.129-1.002,0.387        S359.049,120.108,359.049,120.468z"
                 id="path217" /><path
                 d="M364.311,122.677c0-1.016,0.104-1.833,0.313-2.452s0.52-1.097,0.932-1.433s0.931-0.504,1.556-0.504        c0.461,0,0.865,0.093,1.213,0.278s0.635,0.453,0.861,0.803s0.404,0.775,0.533,1.277s0.193,1.179,0.193,2.03        c0,1.008-0.104,1.821-0.311,2.44s-0.517,1.098-0.929,1.436s-0.933,0.507-1.562,0.507c-0.828,0-1.479-0.297-1.951-0.891        C364.594,125.454,364.311,124.29,364.311,122.677z M365.395,122.677c0,1.41,0.165,2.349,0.495,2.815s0.737,0.7,1.222,0.7        s0.892-0.234,1.222-0.703s0.495-1.406,0.495-2.812c0-1.414-0.165-2.354-0.495-2.818s-0.741-0.697-1.233-0.697        c-0.484,0-0.871,0.205-1.16,0.615C365.576,120.3,365.395,121.267,365.395,122.677z"
                 id="path219" /></g></g></g><g
           id="ytick_2"><g
             id="line2d_2"><g
               id="g228"><g
                 id="g226"><path
                   id="m0818924925_1_"
                   stroke="#000000"
                   stroke-width="1.5"
                   stroke-linejoin="round"
                   d="M377.486,82.633h-3.5" /></g></g></g><g
             id="text_2"><g
               enable-background="new    "
               id="g237"><path
                 d="M356.471,83.155h-5.672v-0.984h5.672V83.155z"
                 id="path231" /><path
                 d="M363.18,85.886v1.014h-5.678c-0.008-0.254,0.033-0.498,0.123-0.732c0.145-0.387,0.376-0.768,0.694-1.143        s0.778-0.809,1.38-1.301c0.934-0.766,1.564-1.372,1.893-1.819s0.492-0.87,0.492-1.269c0-0.418-0.149-0.771-0.448-1.058        s-0.688-0.431-1.169-0.431c-0.508,0-0.914,0.152-1.219,0.457s-0.459,0.727-0.463,1.266l-1.084-0.111        c0.074-0.809,0.354-1.425,0.838-1.849s1.135-0.636,1.951-0.636c0.824,0,1.477,0.229,1.957,0.686s0.721,1.023,0.721,1.699        c0,0.344-0.07,0.682-0.211,1.014s-0.374,0.682-0.7,1.049s-0.868,0.871-1.626,1.512c-0.633,0.531-1.039,0.892-1.219,1.081        s-0.328,0.38-0.445,0.571H363.18z"
                 id="path233" /><path
                 d="M364.311,82.663c0-1.016,0.104-1.833,0.313-2.452s0.52-1.097,0.932-1.433s0.931-0.504,1.556-0.504        c0.461,0,0.865,0.093,1.213,0.278s0.635,0.453,0.861,0.803s0.404,0.775,0.533,1.277s0.193,1.179,0.193,2.03        c0,1.008-0.104,1.821-0.311,2.44s-0.517,1.098-0.929,1.436s-0.933,0.507-1.562,0.507c-0.828,0-1.479-0.297-1.951-0.891        C364.594,85.44,364.311,84.276,364.311,82.663z M365.395,82.663c0,1.41,0.165,2.349,0.495,2.815s0.737,0.7,1.222,0.7        s0.892-0.234,1.222-0.703s0.495-1.406,0.495-2.812c0-1.414-0.165-2.354-0.495-2.818s-0.741-0.697-1.233-0.697        c-0.484,0-0.871,0.205-1.16,0.615C365.576,80.286,365.395,81.253,365.395,82.663z"
                 id="path235" /></g></g></g><g
           id="ytick_3"><g
             id="line2d_3"><g
               id="g244"><g
                 id="g242"><path
                   id="m0818924925_2_"
                   stroke="#000000"
                   stroke-width="1.5"
                   stroke-linejoin="round"
                   d="M377.486,42.619h-3.5" /></g></g></g><g
             id="text_3"><g
               enable-background="new    "
               id="g251"><path
                 d="M361.018,46.887V44.83h-3.727v-0.967l3.92-5.566h0.861v5.566h1.16v0.967h-1.16v2.057H361.018z M361.018,43.863V39.99        l-2.689,3.873H361.018z"
                 id="path247" /><path
                 d="M364.311,42.65c0-1.016,0.104-1.833,0.313-2.452s0.52-1.097,0.932-1.433s0.931-0.504,1.556-0.504        c0.461,0,0.865,0.093,1.213,0.278s0.635,0.453,0.861,0.803s0.404,0.775,0.533,1.277s0.193,1.179,0.193,2.03        c0,1.008-0.104,1.821-0.311,2.44s-0.517,1.098-0.929,1.436s-0.933,0.507-1.562,0.507c-0.828,0-1.479-0.297-1.951-0.891        C364.594,45.428,364.311,44.264,364.311,42.65z M365.395,42.65c0,1.41,0.165,2.349,0.495,2.815s0.737,0.7,1.222,0.7        s0.892-0.234,1.222-0.703s0.495-1.406,0.495-2.812c0-1.414-0.165-2.354-0.495-2.818s-0.741-0.697-1.233-0.697        c-0.484,0-0.871,0.205-1.16,0.615C365.576,40.273,365.395,41.24,365.395,42.65z"
                 id="path249" /></g></g></g><g
           id="text_4"><g
             enable-background="new    "
             id="g277"><path
               d="M343.605,108.888l-6.223,2.367v-1.113l3.727-1.336c0.402-0.145,0.82-0.277,1.254-0.398       c-0.328-0.094-0.723-0.225-1.184-0.393l-3.797-1.383v-1.084l6.223,2.355V108.888z"
               id="path255" /><path
               d="M340.494,105.009c-1.152,0-2.006-0.32-2.561-0.961c-0.461-0.535-0.691-1.188-0.691-1.957       c0-0.855,0.28-1.555,0.841-2.098s1.335-0.814,2.323-0.814c0.801,0,1.431,0.12,1.89,0.36s0.815,0.59,1.069,1.049       s0.381,0.96,0.381,1.503c0,0.871-0.279,1.575-0.838,2.112S341.545,105.009,340.494,105.009z M340.494,103.925       c0.797,0,1.394-0.174,1.79-0.521s0.595-0.785,0.595-1.312c0-0.523-0.199-0.959-0.598-1.307s-1.006-0.521-1.822-0.521       c-0.77,0-1.353,0.175-1.749,0.524s-0.595,0.784-0.595,1.304c0,0.527,0.197,0.965,0.592,1.312S339.697,103.925,340.494,103.925z       "
               id="path257" /><path
               d="M343.605,97.966h-8.59v-1.055h8.59V97.966z"
               id="path259" /><path
               d="M342.662,92.974l0.932-0.152c0.062,0.297,0.094,0.562,0.094,0.797c0,0.383-0.061,0.68-0.182,0.891       s-0.28,0.359-0.478,0.445s-0.612,0.129-1.245,0.129h-3.58v0.773h-0.82v-0.773h-1.541l-0.633-1.049h2.174v-1.061h0.82v1.061       h3.639c0.301,0,0.494-0.019,0.58-0.056s0.154-0.098,0.205-0.182s0.076-0.204,0.076-0.36       C342.703,93.319,342.689,93.165,342.662,92.974z"
               id="path261" /><path
               d="M342.838,87.882c0.332,0.391,0.566,0.767,0.703,1.128s0.205,0.749,0.205,1.163c0,0.684-0.167,1.209-0.501,1.576       s-0.761,0.551-1.28,0.551c-0.305,0-0.583-0.069-0.835-0.208s-0.454-0.32-0.606-0.545s-0.268-0.478-0.346-0.759       c-0.055-0.207-0.107-0.52-0.158-0.938c-0.102-0.852-0.223-1.479-0.363-1.881c-0.145-0.004-0.236-0.006-0.275-0.006       c-0.43,0-0.732,0.1-0.908,0.299c-0.238,0.27-0.357,0.67-0.357,1.201c0,0.496,0.087,0.862,0.261,1.099s0.481,0.411,0.923,0.524       l-0.141,1.031c-0.441-0.094-0.798-0.248-1.069-0.463s-0.48-0.525-0.627-0.932s-0.22-0.877-0.22-1.412       c0-0.531,0.062-0.963,0.188-1.295s0.282-0.576,0.472-0.732s0.429-0.266,0.718-0.328c0.18-0.035,0.504-0.053,0.973-0.053h1.406       c0.98,0,1.601-0.022,1.86-0.067s0.509-0.134,0.747-0.267v1.102C343.387,87.78,343.131,87.851,342.838,87.882z M340.482,87.97       c0.156,0.383,0.289,0.957,0.398,1.723c0.062,0.434,0.133,0.74,0.211,0.92s0.192,0.318,0.343,0.416s0.317,0.146,0.501,0.146       c0.281,0,0.516-0.106,0.703-0.319s0.281-0.524,0.281-0.935c0-0.406-0.089-0.768-0.267-1.084s-0.421-0.549-0.729-0.697       c-0.238-0.113-0.59-0.17-1.055-0.17H340.482z"
               id="path263" /><path
               d="M344.121,85.462l0.152-1.025c0.316-0.043,0.547-0.162,0.691-0.357c0.195-0.262,0.293-0.619,0.293-1.072       c0-0.488-0.098-0.865-0.293-1.131s-0.469-0.444-0.82-0.538c-0.215-0.055-0.666-0.08-1.354-0.076       c0.543,0.46,0.814,1.034,0.814,1.722c0,0.855-0.309,1.518-0.926,1.986s-1.357,0.703-2.221,0.703       c-0.594,0-1.142-0.107-1.644-0.322s-0.89-0.526-1.163-0.935s-0.41-0.888-0.41-1.438c0-0.734,0.297-1.34,0.891-1.815h-0.75       v-0.973h5.379c0.969,0,1.655,0.099,2.06,0.296s0.724,0.51,0.958,0.937c0.234,0.428,0.352,0.954,0.352,1.579       c0,0.742-0.167,1.342-0.501,1.799S344.793,85.478,344.121,85.462z M340.383,84.589c0.816,0,1.412-0.162,1.787-0.486       s0.562-0.73,0.562-1.219c0-0.484-0.187-0.891-0.56-1.219c-0.373-0.327-0.958-0.491-1.755-0.491       c-0.762,0-1.336,0.168-1.723,0.506s-0.58,0.745-0.58,1.222c0,0.469,0.19,0.867,0.571,1.195S339.633,84.589,340.383,84.589z"
               id="path265" /><path
               d="M341.602,74.335l0.135-1.09c0.637,0.172,1.131,0.49,1.482,0.955s0.527,1.059,0.527,1.781       c0,0.91-0.28,1.632-0.841,2.165s-1.347,0.8-2.358,0.8c-1.047,0-1.859-0.27-2.438-0.809s-0.867-1.238-0.867-2.098       c0-0.832,0.283-1.512,0.85-2.039s1.363-0.791,2.391-0.791c0.062,0,0.156,0.002,0.281,0.006v4.641       c0.684-0.039,1.207-0.232,1.57-0.58s0.545-0.781,0.545-1.301c0-0.387-0.102-0.717-0.305-0.99S342.047,74.496,341.602,74.335z        M339.896,77.798v-3.475c-0.523,0.047-0.916,0.18-1.178,0.398c-0.406,0.336-0.609,0.771-0.609,1.307       c0,0.484,0.162,0.892,0.486,1.222S339.354,77.763,339.896,77.798z"
               id="path267" /><path
               d="M346.131,66.572c-0.734,0.582-1.594,1.074-2.578,1.477s-2.004,0.604-3.059,0.604c-0.93,0-1.82-0.15-2.672-0.451       c-0.988-0.352-1.973-0.895-2.953-1.629v-0.756c0.812,0.473,1.393,0.785,1.74,0.938c0.539,0.238,1.102,0.426,1.688,0.562       c0.73,0.168,1.465,0.252,2.203,0.252c1.879,0,3.756-0.584,5.631-1.752V66.572z"
               id="path269" /><path
               d="M343.605,64.591h-6.223v-0.943h0.873c-0.305-0.195-0.55-0.455-0.735-0.779s-0.278-0.693-0.278-1.107       c0-0.461,0.096-0.839,0.287-1.134s0.459-0.503,0.803-0.624c-0.727-0.492-1.09-1.133-1.09-1.922       c0-0.617,0.171-1.092,0.513-1.424s0.868-0.498,1.579-0.498h4.271v1.049h-3.92c-0.422,0-0.726,0.034-0.911,0.103       s-0.335,0.192-0.448,0.372s-0.17,0.391-0.17,0.633c0,0.438,0.146,0.801,0.437,1.09s0.757,0.434,1.397,0.434h3.615v1.055h-4.043       c-0.469,0-0.82,0.086-1.055,0.258s-0.352,0.453-0.352,0.844c0,0.297,0.078,0.571,0.234,0.823s0.385,0.435,0.686,0.548       s0.734,0.17,1.301,0.17h3.229V64.591z"
               id="path271" /><path
               d="M343.605,52.005l-8.59,3.328v-1.23l6.24-2.232c0.5-0.18,0.969-0.33,1.406-0.451c-0.469-0.133-0.938-0.287-1.406-0.463       l-6.24-2.32v-1.16l8.59,3.363V52.005z"
               id="path273" /><path
               d="M346.131,45.9v0.756c-1.875-1.168-3.752-1.752-5.631-1.752c-0.734,0-1.463,0.084-2.186,0.252       c-0.586,0.133-1.148,0.318-1.688,0.557c-0.352,0.152-0.938,0.467-1.758,0.943V45.9c0.98-0.734,1.965-1.277,2.953-1.629       c0.852-0.301,1.742-0.451,2.672-0.451c1.055,0,2.074,0.202,3.059,0.606S345.396,45.322,346.131,45.9z"
               id="path275" /></g></g></g><g
         id="line2d_4"><g
           id="g289"><defs
             id="defs282"><rect
               id="SVGID_1_"
               x="377.486"
               y="31.833"
               width="224.078"
               height="91.077" /></defs><clipPath
             id="SVGID_2_"><use
               xlink:href="#SVGID_1_"
               overflow="visible"
               id="use284" /></clipPath><path
             clip-path="url(#SVGID_2_)"
             fill="none"
             stroke="#2356A7"
             stroke-width="2"
             stroke-linecap="square"
             stroke-linejoin="round"
             d="      M387.672,115.977l0.305,0.029l0.238-0.025l0.17-0.035l0.187-0.02l1.952-0.03l0.187,0.007l0.204,0.018l2.258,0.081l0.374,0.071      l0.645-0.006l0.153,0.018l0.322,0.036l2.139,0.067l0.187,0.026l0.798,0.091l0.187-0.003l0.339-0.023l0.254-0.023l0.17,0.019      l0.611-0.051l0.424-0.047l4.923-0.07l0.645-0.76l0.374-0.412l1.341-1.585l1.171-1.303l0.917-0.925l0.374-0.354l0.237-0.2      l0.323-0.249l0.187-0.19l0.408-0.375l0.645-0.543l1.104-0.873l0.373-0.262l0.561-0.418l0.119-0.076l0.204-0.112l0.391-0.319      l0.374-0.261l0.289-0.232l0.866-0.626l0.271-0.155l0.221-0.138l0.153-0.113l0.492-0.355l0.17-0.145l1.867-1.863l0.917-1.723      l0.475-2.016l0.271-3.053l0.153-4.736l0.119-11.537l0.356-44.223l0.068,0.424l0.169,3.27l0.289,11.021l1.341,58.943l0.339,5.469      l0.323,2.212l0.339,0.883l0.271,0.182l0.323-0.063l1.341-1.306l0.526-0.67l2.156-2.256l1.052-1.054l0.934-0.847l0.9-0.791      l0.764-0.641l0.594-0.487l0.289-0.186l0.136-0.082l0.204-0.166l0.476-0.344l1.697-1.125l0.425-0.184l0.254-0.206l0.951-0.563      l0.254-0.163l0.798-0.47l0.204-0.078l0.374-0.236l0.119-0.086l0.306-0.21l1.239-0.714l0.39-0.256l0.408-0.268l0.424-0.258      l0.39-0.271l0.272-0.244l0.39-0.287l0.136-0.086l0.374-0.397l0.476-0.595l0.866-1.884l0.271-1.302l0.238-2.237l0.169-3.953      l0.136-9.929l0.373-47.404l0.051,0.225l0.153,2.523l0.271,9.467l1.528,64.156l0.339,3.846l0.34,1.629l0.289,0.506l0.407,0.12      l0.849-0.702l0.34-0.35l0.747-0.771l0.611-0.589l0.407-0.389l0.492-0.514l1.273-1.276l0.526-0.403l0.526-0.496l0.628-0.434      l0.747-0.6l0.34-0.306l0.441-0.28l2.037-1.211l0.322-0.195l0.271-0.173l0.153-0.077l0.441-0.248l1.121-0.613l0.221-0.114      l0.374-0.179l0.832-0.436l0.561-0.298l0.22-0.111l0.374-0.269l0.272-0.092l1.239-0.603l0.679-0.286l0.391-0.136l0.306-0.112      l0.917-0.333l0.645-0.267l0.221-0.144l0.373-0.19l0.153-0.059l1.46-0.746l0.475-0.379l0.153-0.109l1.426-1.401l0.765-1.493      l0.288-1.15l0.322-2.783l0.17-4.134l0.118-8.481l0.391-48.498l0.068,0.491l0.188,3.84l0.305,12.34l1.188,54.075l0.374,7.565      l0.339,2.781l0.356,1.156l0.255,0.294l0.255,0.04l0.135-0.015l1.664-1.554l0.255-0.228l0.934-0.866l0.187-0.155l0.662-0.605      l0.951-0.748l0.475-0.374l0.662-0.515l0.951-0.689l0.458-0.312l0.561-0.424l2.444-1.483l0.561-0.331l0.237-0.134l0.136-0.03      l0.289-0.177l0.17-0.105l1.272-0.603l0.765-0.351l0.118-0.06l0.237-0.106l0.408-0.177l0.441-0.225l0.391-0.134l0.373-0.162      l0.356-0.165l0.425-0.149l0.236-0.128l4.295-1.555l0.493-0.188l1.681-0.633l0.492-0.158l0.254-0.132l0.969-0.493l0.254-0.158      l0.459-0.229l0.203-0.049l0.203-0.117l0.17-0.102l0.459-0.344l0.271-0.283l1.223-1.674l0.355-1.081l0.238-1.351l0.203-2.161      l0.153-3.841l0.118-8.367l0.391-48.626l0.086,0.691l0.17,3.655l0.305,12.318l1.188,54.024l0.356,7.357l0.322,2.871l0.289,1.14      l0.271,0.414l0.407,0.107l1.206-0.994l0.424-0.44l0.543-0.542l0.984-0.892l1.02-0.903l0.221-0.115l0.288-0.229l1.103-0.853      l0.748-0.522l0.305-0.224l1.375-0.922l0.289-0.168l0.255-0.188l0.61-0.36l1.478-0.787l0.322-0.186l8.132-3.111l0.187-0.047      l1.731-0.441l0.136-0.043l0.306-0.083l0.34-0.074l0.391-0.091l0.254-0.066l0.391-0.117l0.561-0.163l0.17-0.08l0.288-0.093      l5.347-1.865l0.221-0.084l0.17-0.146l0.238-0.141l0.883-0.623l0.95-1.258l0.374-0.967l0.355-1.688L544,96.836l0.17-4.826      l0.119-10.781l0.356-45.049l0.017,0.035l0.103,1.062l0.204,5.164l0.355,16.148l0.934,43.479l0.408,10.794l0.356,3.892      l0.356,1.492l0.34,0.474l0.525-0.042l0.408-0.299l0.441-0.371l0.221-0.199l0.271-0.279l0.441-0.358l0.305-0.269l0.221-0.181      l0.238-0.226l0.237-0.16l1.257-1.116l0.17-0.119l0.406-0.322l1.8-1.243l0.509-0.326l0.408-0.291l0.832-0.508l0.355-0.247      l0.307-0.161l0.203-0.097l0.34-0.221l0.34-0.218l0.203-0.068l0.238-0.115l0.305-0.165l2.275-1.058l0.628-0.287l0.306-0.075      l2.92-1.084l0.17-0.003l0.729-0.176l0.221-0.107l0.391-0.141l0.356-0.154l0.984-0.236l0.289-0.105l0.135-0.024l0.34-0.132      l0.476-0.102l0.204-0.031l0.611-0.197l0.203-0.027l0.306-0.057l0.441-0.143l0.407-0.087l0.543-0.087l0.306-0.096l0.288-0.039      l1.375-0.294l0.238-0.05l0.713,0.003l0.34,0.356l0.746,0.669l0.426,0.474l4.107,3.582l0.271,0.138l0.391,0.236l0.34,0.269      l0.611,0.375l0.186,0.107l0.289,0.197l0.152,0.086l0.374,0.213l0.611,0.408l0.713,0.439l0.934,0.498l0.526,0.213l0.391,0.131      l0.34,0.142l0.118,0.052l2.241,0.928l0.78,0.242l0.237,0.104l0.459,0.138l1.239,0.517l0,0"
             id="path287"
             style="stroke:#56d8ab;stroke-opacity:1" /></g></g><g
         id="patch_3"><path
           fill="none"
           stroke="#000000"
           stroke-width="1.5"
           stroke-linecap="square"
           d="M377.486,122.91V31.833"
           id="path292" /></g><g
         id="patch_4"><path
           fill="none"
           stroke="#000000"
           stroke-width="1.5"
           stroke-linecap="square"
           d="M377.486,122.91h224.078"
           id="path295" /></g></g><g
       id="axes_2"><g
         id="patch_5"><path
           fill="none"
           d="M377.486,157.063h224.078v-22.77H377.486V157.063z"
           id="path299" /></g><g
         id="matplotlib.axis_3"><g
           id="xtick_1"><g
             id="line2d_5"><g
               id="g305"><g
                 id="g303"><path
                   id="mc33c41c0e5"
                   stroke="#000000"
                   stroke-width="1.5"
                   stroke-linejoin="round"
                   d="M387.672,157.063v3.5" /></g></g></g><g
             id="text_5"><g
               enable-background="new    "
               id="g310"><path
                 d="M384.833,168.389c0-1.016,0.104-1.833,0.313-2.452s0.52-1.097,0.932-1.433s0.931-0.504,1.556-0.504        c0.461,0,0.865,0.093,1.213,0.278s0.635,0.453,0.861,0.803s0.404,0.775,0.533,1.277s0.193,1.179,0.193,2.03        c0,1.008-0.104,1.821-0.311,2.44s-0.517,1.098-0.929,1.436s-0.933,0.507-1.562,0.507c-0.828,0-1.479-0.297-1.951-0.891        C385.116,171.166,384.833,170.002,384.833,168.389z M385.917,168.389c0,1.41,0.165,2.349,0.495,2.815s0.737,0.7,1.222,0.7        s0.892-0.234,1.222-0.703s0.495-1.406,0.495-2.812c0-1.414-0.165-2.354-0.495-2.818s-0.741-0.697-1.233-0.697        c-0.484,0-0.871,0.205-1.16,0.615C386.099,166.012,385.917,166.979,385.917,168.389z"
                 id="path308" /></g></g></g><g
           id="xtick_2"><g
             id="line2d_6"><g
               id="g317"><g
                 id="g315"><path
                   id="mc33c41c0e5_1_"
                   stroke="#000000"
                   stroke-width="1.5"
                   stroke-linejoin="round"
                   d="M489.525,157.063v3.5" /></g></g></g><g
             id="text_6"><g
               enable-background="new    "
               id="g324"><path
                 d="M488.823,166.139l-1.049,0.082c-0.094-0.414-0.227-0.715-0.398-0.902c-0.285-0.301-0.637-0.451-1.055-0.451        c-0.336,0-0.631,0.094-0.885,0.281c-0.332,0.242-0.594,0.596-0.785,1.061s-0.291,1.127-0.299,1.986        c0.254-0.387,0.564-0.674,0.932-0.861s0.752-0.281,1.154-0.281c0.703,0,1.302,0.259,1.796,0.776s0.741,1.187,0.741,2.007        c0,0.539-0.116,1.04-0.349,1.503s-0.552,0.817-0.958,1.063s-0.867,0.369-1.383,0.369c-0.879,0-1.596-0.323-2.15-0.97        s-0.832-1.712-0.832-3.196c0-1.66,0.307-2.867,0.92-3.621c0.535-0.656,1.256-0.984,2.162-0.984        c0.676,0,1.229,0.189,1.661,0.568S488.737,165.471,488.823,166.139z M484.516,169.842c0,0.363,0.077,0.711,0.231,1.043        s0.37,0.585,0.647,0.759s0.568,0.261,0.873,0.261c0.445,0,0.828-0.18,1.148-0.539s0.48-0.848,0.48-1.465        c0-0.594-0.158-1.062-0.475-1.403s-0.715-0.513-1.195-0.513c-0.477,0-0.881,0.171-1.213,0.513        S484.516,169.287,484.516,169.842z"
                 id="path320" /><path
                 d="M490.024,168.389c0-1.016,0.104-1.833,0.313-2.452s0.52-1.097,0.932-1.433S492.2,164,492.825,164        c0.461,0,0.865,0.093,1.213,0.278s0.635,0.453,0.861,0.803s0.404,0.775,0.533,1.277s0.193,1.179,0.193,2.03        c0,1.008-0.104,1.821-0.311,2.44s-0.517,1.098-0.929,1.436s-0.933,0.507-1.562,0.507c-0.828,0-1.479-0.297-1.951-0.891        C490.307,171.166,490.024,170.002,490.024,168.389z M491.108,168.389c0,1.41,0.165,2.349,0.495,2.815s0.737,0.7,1.222,0.7        s0.892-0.234,1.222-0.703s0.495-1.406,0.495-2.812c0-1.414-0.165-2.354-0.495-2.818s-0.741-0.697-1.233-0.697        c-0.484,0-0.871,0.205-1.16,0.615C491.29,166.012,491.108,166.979,491.108,168.389z"
                 id="path322" /></g></g></g><g
           id="xtick_3"><g
             id="line2d_7"><g
               id="g331"><g
                 id="g329"><path
                   id="mc33c41c0e5_2_"
                   stroke="#000000"
                   stroke-width="1.5"
                   stroke-linejoin="round"
                   d="M591.38,157.063v3.5" /></g></g></g><g
             id="text_7"><g
               enable-background="new    "
               id="g340"><path
                 d="M585.84,172.625h-1.055v-6.721c-0.254,0.242-0.587,0.484-0.999,0.727s-0.782,0.424-1.11,0.545v-1.02        c0.59-0.277,1.105-0.613,1.547-1.008s0.754-0.777,0.938-1.148h0.68V172.625z"
                 id="path334" /><path
                 d="M594.084,171.611v1.014h-5.678c-0.008-0.254,0.033-0.498,0.123-0.732c0.145-0.387,0.376-0.768,0.694-1.143        s0.778-0.809,1.38-1.301c0.934-0.766,1.564-1.372,1.893-1.819s0.492-0.87,0.492-1.269c0-0.418-0.149-0.771-0.448-1.058        s-0.688-0.431-1.169-0.431c-0.508,0-0.914,0.152-1.219,0.457s-0.459,0.727-0.463,1.266l-1.084-0.111        c0.074-0.809,0.354-1.425,0.838-1.849s1.135-0.636,1.951-0.636c0.824,0,1.477,0.229,1.957,0.686s0.721,1.023,0.721,1.699        c0,0.344-0.07,0.682-0.211,1.014s-0.374,0.682-0.7,1.049s-0.868,0.871-1.626,1.512c-0.633,0.531-1.039,0.892-1.219,1.081        s-0.328,0.38-0.445,0.571H594.084z"
                 id="path336" /><path
                 d="M595.215,168.389c0-1.016,0.104-1.833,0.313-2.452s0.52-1.097,0.932-1.433s0.931-0.504,1.556-0.504        c0.461,0,0.865,0.093,1.213,0.278s0.635,0.453,0.861,0.803s0.404,0.775,0.533,1.277s0.193,1.179,0.193,2.03        c0,1.008-0.104,1.821-0.311,2.44s-0.517,1.098-0.929,1.436s-0.933,0.507-1.562,0.507c-0.828,0-1.479-0.297-1.951-0.891        C595.498,171.166,595.215,170.002,595.215,168.389z M596.299,168.389c0,1.41,0.165,2.349,0.495,2.815s0.737,0.7,1.222,0.7        s0.892-0.234,1.222-0.703s0.495-1.406,0.495-2.812c0-1.414-0.165-2.354-0.495-2.818s-0.741-0.697-1.233-0.697        c-0.484,0-0.871,0.205-1.16,0.615C596.48,166.012,596.299,166.979,596.299,168.389z"
                 id="path338" /></g></g></g><g
           id="text_8"><g
             enable-background="new    "
             id="g360"><path
               d="M467.624,186.803l0.152,0.932c-0.297,0.062-0.562,0.094-0.797,0.094c-0.383,0-0.68-0.061-0.891-0.182       s-0.359-0.28-0.445-0.478s-0.129-0.612-0.129-1.245v-3.58h-0.773v-0.82h0.773v-1.541l1.049-0.633v2.174h1.061v0.82h-1.061       v3.639c0,0.301,0.019,0.494,0.056,0.58s0.098,0.154,0.182,0.205s0.204,0.076,0.36,0.076       C467.278,186.844,467.432,186.83,467.624,186.803z"
               id="path344" /><path
               d="M468.661,180.369v-1.213h1.055v1.213H468.661z M468.661,187.746v-6.223h1.055v6.223H468.661z"
               id="path346" /><path
               d="M471.321,187.746v-6.223h0.943v0.873c0.195-0.305,0.455-0.55,0.779-0.735s0.693-0.278,1.107-0.278       c0.461,0,0.839,0.096,1.134,0.287s0.503,0.459,0.624,0.803c0.492-0.727,1.133-1.09,1.922-1.09c0.617,0,1.092,0.171,1.424,0.513       s0.498,0.868,0.498,1.579v4.271h-1.049v-3.92c0-0.422-0.034-0.726-0.103-0.911s-0.192-0.335-0.372-0.448       s-0.391-0.17-0.633-0.17c-0.438,0-0.801,0.146-1.09,0.437s-0.434,0.757-0.434,1.397v3.615h-1.055v-4.043       c0-0.469-0.086-0.82-0.258-1.055s-0.453-0.352-0.844-0.352c-0.297,0-0.571,0.078-0.823,0.234s-0.435,0.385-0.548,0.686       s-0.17,0.734-0.17,1.301v3.229H471.321z"
               id="path348" /><path
               d="M485.577,185.742l1.09,0.135c-0.172,0.637-0.49,1.131-0.955,1.482s-1.059,0.527-1.781,0.527       c-0.91,0-1.632-0.28-2.165-0.841s-0.8-1.347-0.8-2.358c0-1.047,0.27-1.859,0.809-2.438s1.238-0.867,2.098-0.867       c0.832,0,1.512,0.283,2.039,0.85s0.791,1.363,0.791,2.391c0,0.062-0.002,0.156-0.006,0.281h-4.641       c0.039,0.684,0.232,1.207,0.58,1.57s0.781,0.545,1.301,0.545c0.387,0,0.717-0.102,0.99-0.305S485.417,186.188,485.577,185.742z        M482.114,184.037h3.475c-0.047-0.523-0.18-0.916-0.398-1.178c-0.336-0.406-0.771-0.609-1.307-0.609       c-0.484,0-0.892,0.162-1.222,0.486S482.149,183.494,482.114,184.037z"
               id="path350" /><path
               d="M493.34,190.271c-0.582-0.734-1.074-1.594-1.477-2.578s-0.604-2.004-0.604-3.059c0-0.93,0.15-1.82,0.451-2.672       c0.352-0.988,0.895-1.973,1.629-2.953h0.756c-0.473,0.812-0.785,1.393-0.938,1.74c-0.238,0.539-0.426,1.102-0.562,1.688       c-0.168,0.73-0.252,1.465-0.252,2.203c0,1.879,0.584,3.756,1.752,5.631H493.34z"
               id="path352" /><path
               d="M495.321,187.746v-6.223h0.943v0.873c0.195-0.305,0.455-0.55,0.779-0.735s0.693-0.278,1.107-0.278       c0.461,0,0.839,0.096,1.134,0.287s0.503,0.459,0.624,0.803c0.492-0.727,1.133-1.09,1.922-1.09c0.617,0,1.092,0.171,1.424,0.513       s0.498,0.868,0.498,1.579v4.271h-1.049v-3.92c0-0.422-0.034-0.726-0.103-0.911s-0.192-0.335-0.372-0.448       s-0.391-0.17-0.633-0.17c-0.438,0-0.801,0.146-1.09,0.437s-0.434,0.757-0.434,1.397v3.615h-1.055v-4.043       c0-0.469-0.086-0.82-0.258-1.055s-0.453-0.352-0.844-0.352c-0.297,0-0.571,0.078-0.823,0.234s-0.435,0.385-0.548,0.686       s-0.17,0.734-0.17,1.301v3.229H495.321z"
               id="path354" /><path
               d="M504.895,185.889l1.043-0.164c0.059,0.418,0.222,0.738,0.489,0.961s0.642,0.334,1.122,0.334       c0.484,0,0.844-0.099,1.078-0.296s0.352-0.429,0.352-0.694c0-0.238-0.104-0.426-0.311-0.562       c-0.145-0.094-0.504-0.213-1.078-0.357c-0.773-0.195-1.31-0.364-1.608-0.507s-0.525-0.34-0.68-0.592s-0.231-0.53-0.231-0.835       c0-0.277,0.063-0.534,0.19-0.771s0.3-0.433,0.519-0.589c0.164-0.121,0.388-0.224,0.671-0.308s0.587-0.126,0.911-0.126       c0.488,0,0.917,0.07,1.286,0.211s0.642,0.331,0.817,0.571s0.297,0.562,0.363,0.964l-1.031,0.141       c-0.047-0.32-0.183-0.57-0.407-0.75s-0.542-0.27-0.952-0.27c-0.484,0-0.83,0.08-1.037,0.24s-0.311,0.348-0.311,0.562       c0,0.137,0.043,0.26,0.129,0.369c0.086,0.113,0.221,0.207,0.404,0.281c0.105,0.039,0.416,0.129,0.932,0.27       c0.746,0.199,1.267,0.362,1.562,0.489s0.526,0.312,0.694,0.554s0.252,0.543,0.252,0.902c0,0.352-0.103,0.683-0.308,0.993       s-0.501,0.551-0.888,0.721s-0.824,0.255-1.312,0.255c-0.809,0-1.425-0.168-1.849-0.504S505.012,186.549,504.895,185.889z"
               id="path356" /><path
               d="M512.008,190.271h-0.756c1.168-1.875,1.752-3.752,1.752-5.631c0-0.734-0.084-1.463-0.252-2.186       c-0.133-0.586-0.318-1.148-0.557-1.688c-0.152-0.352-0.467-0.938-0.943-1.758h0.756c0.734,0.98,1.277,1.965,1.629,2.953       c0.301,0.852,0.451,1.742,0.451,2.672c0,1.055-0.201,2.074-0.605,3.059S512.586,189.537,512.008,190.271z"
               id="path358" /></g></g></g><g
         id="matplotlib.axis_4"><g
           id="ytick_4"><g
             id="line2d_8"><g
               id="g367"><g
                 id="g365"><path
                   id="m0818924925_3_"
                   stroke="#000000"
                   stroke-width="1.5"
                   stroke-linejoin="round"
                   d="M377.486,156.073h-3.5" /></g></g></g><g
             id="text_9"><g
               enable-background="new    "
               id="g378"><path
                 d="M347.629,156.104c0-1.016,0.104-1.833,0.313-2.452s0.52-1.097,0.932-1.433s0.931-0.504,1.556-0.504        c0.461,0,0.865,0.093,1.213,0.278s0.635,0.453,0.861,0.803s0.404,0.775,0.533,1.277s0.193,1.179,0.193,2.03        c0,1.008-0.104,1.821-0.311,2.44s-0.517,1.098-0.929,1.436s-0.933,0.507-1.562,0.507c-0.828,0-1.479-0.297-1.951-0.891        C347.912,158.882,347.629,157.718,347.629,156.104z M348.713,156.104c0,1.41,0.165,2.349,0.495,2.815s0.737,0.7,1.222,0.7        s0.892-0.234,1.222-0.703s0.495-1.406,0.495-2.812c0-1.414-0.165-2.354-0.495-2.818s-0.741-0.697-1.233-0.697        c-0.484,0-0.871,0.205-1.16,0.615C348.895,153.728,348.713,154.694,348.713,156.104z"
                 id="path370" /><path
                 d="M354.895,160.341v-1.201h1.201v1.201H354.895z"
                 id="path372" /><path
                 d="M357.637,156.104c0-1.016,0.104-1.833,0.313-2.452s0.52-1.097,0.932-1.433s0.931-0.504,1.556-0.504        c0.461,0,0.865,0.093,1.213,0.278s0.635,0.453,0.861,0.803s0.404,0.775,0.533,1.277s0.193,1.179,0.193,2.03        c0,1.008-0.104,1.821-0.311,2.44s-0.517,1.098-0.929,1.436s-0.933,0.507-1.562,0.507c-0.828,0-1.479-0.297-1.951-0.891        C357.92,158.882,357.637,157.718,357.637,156.104z M358.721,156.104c0,1.41,0.165,2.349,0.495,2.815s0.737,0.7,1.222,0.7        s0.892-0.234,1.222-0.703s0.495-1.406,0.495-2.812c0-1.414-0.165-2.354-0.495-2.818s-0.741-0.697-1.233-0.697        c-0.484,0-0.871,0.205-1.16,0.615C358.902,153.728,358.721,154.694,358.721,156.104z"
                 id="path374" /><path
                 d="M364.311,156.104c0-1.016,0.104-1.833,0.313-2.452s0.52-1.097,0.932-1.433s0.931-0.504,1.556-0.504        c0.461,0,0.865,0.093,1.213,0.278s0.635,0.453,0.861,0.803s0.404,0.775,0.533,1.277s0.193,1.179,0.193,2.03        c0,1.008-0.104,1.821-0.311,2.44s-0.517,1.098-0.929,1.436s-0.933,0.507-1.562,0.507c-0.828,0-1.479-0.297-1.951-0.891        C364.594,158.882,364.311,157.718,364.311,156.104z M365.395,156.104c0,1.41,0.165,2.349,0.495,2.815s0.737,0.7,1.222,0.7        s0.892-0.234,1.222-0.703s0.495-1.406,0.495-2.812c0-1.414-0.165-2.354-0.495-2.818s-0.741-0.697-1.233-0.697        c-0.484,0-0.871,0.205-1.16,0.615C365.576,153.728,365.395,154.694,365.395,156.104z"
                 id="path376" /></g></g></g><g
           id="ytick_5"><g
             id="line2d_9"><g
               id="g385"><g
                 id="g383"><path
                   id="m0818924925_4_"
                   stroke="#000000"
                   stroke-width="1.5"
                   stroke-linejoin="round"
                   d="M377.486,134.294h-3.5" /></g></g></g><g
             id="text_10"><g
               enable-background="new    "
               id="g396"><path
                 d="M347.629,134.326c0-1.016,0.104-1.833,0.313-2.452s0.52-1.097,0.932-1.433s0.931-0.504,1.556-0.504        c0.461,0,0.865,0.093,1.213,0.278s0.635,0.453,0.861,0.803s0.404,0.775,0.533,1.277s0.193,1.179,0.193,2.03        c0,1.008-0.104,1.821-0.311,2.44s-0.517,1.098-0.929,1.436s-0.933,0.507-1.562,0.507c-0.828,0-1.479-0.297-1.951-0.891        C347.912,137.104,347.629,135.939,347.629,134.326z M348.713,134.326c0,1.41,0.165,2.349,0.495,2.815s0.737,0.7,1.222,0.7        s0.892-0.234,1.222-0.703s0.495-1.406,0.495-2.812c0-1.414-0.165-2.354-0.495-2.818s-0.741-0.697-1.233-0.697        c-0.484,0-0.871,0.205-1.16,0.615C348.895,131.949,348.713,132.916,348.713,134.326z"
                 id="path388" /><path
                 d="M354.895,138.562v-1.201h1.201v1.201H354.895z"
                 id="path390" /><path
                 d="M357.637,136.312l1.107-0.094c0.082,0.539,0.272,0.944,0.571,1.216s0.659,0.407,1.081,0.407        c0.508,0,0.938-0.191,1.289-0.574s0.527-0.891,0.527-1.523c0-0.602-0.169-1.076-0.507-1.424s-0.78-0.521-1.327-0.521        c-0.34,0-0.646,0.077-0.92,0.231s-0.488,0.354-0.645,0.601l-0.99-0.129l0.832-4.412h4.271v1.008H359.5l-0.463,2.309        c0.516-0.359,1.057-0.539,1.623-0.539c0.75,0,1.383,0.26,1.898,0.779s0.773,1.188,0.773,2.004c0,0.777-0.227,1.449-0.68,2.016        c-0.551,0.695-1.303,1.043-2.256,1.043c-0.781,0-1.419-0.219-1.913-0.656S357.707,137.035,357.637,136.312z"
                 id="path392" /><path
                 d="M364.311,136.312l1.107-0.094c0.082,0.539,0.272,0.944,0.571,1.216s0.659,0.407,1.081,0.407        c0.508,0,0.938-0.191,1.289-0.574s0.527-0.891,0.527-1.523c0-0.602-0.169-1.076-0.507-1.424s-0.78-0.521-1.327-0.521        c-0.34,0-0.646,0.077-0.92,0.231s-0.488,0.354-0.645,0.601l-0.99-0.129l0.832-4.412h4.271v1.008h-3.428l-0.463,2.309        c0.516-0.359,1.057-0.539,1.623-0.539c0.75,0,1.383,0.26,1.898,0.779s0.773,1.188,0.773,2.004c0,0.777-0.227,1.449-0.68,2.016        c-0.551,0.695-1.303,1.043-2.256,1.043c-0.781,0-1.419-0.219-1.913-0.656S364.381,137.035,364.311,136.312z"
                 id="path394" /></g></g></g><g
           id="text_11"><g
             enable-background="new    "
             id="g418"><path
               d="M333.23,170.919h-1.213v-1.055h1.213V170.919z M340.607,170.919h-6.223v-1.055h6.223V170.919z"
               id="path400" /><path
               d="M340.607,168.259h-6.223v-0.949h0.885c-0.684-0.457-1.025-1.117-1.025-1.98c0-0.375,0.067-0.72,0.202-1.034       s0.312-0.55,0.53-0.706s0.479-0.266,0.779-0.328c0.195-0.039,0.537-0.059,1.025-0.059h3.826v1.055h-3.785       c-0.43,0-0.751,0.041-0.964,0.123s-0.383,0.228-0.51,0.437s-0.19,0.454-0.19,0.735c0,0.449,0.143,0.837,0.428,1.163       s0.826,0.489,1.623,0.489h3.398V168.259z"
               id="path402" /><path
               d="M342.992,161.585h-8.607v-0.961h0.809c-0.316-0.227-0.554-0.482-0.712-0.768s-0.237-0.631-0.237-1.037       c0-0.531,0.137-1,0.41-1.406s0.659-0.713,1.157-0.92s1.044-0.311,1.638-0.311c0.637,0,1.21,0.114,1.72,0.343       s0.9,0.561,1.172,0.996s0.407,0.894,0.407,1.374c0,0.352-0.074,0.667-0.223,0.946s-0.336,0.509-0.562,0.688h3.029V161.585z        M337.531,160.63c0.801,0,1.393-0.162,1.775-0.486s0.574-0.717,0.574-1.178c0-0.469-0.198-0.87-0.595-1.204       s-1.011-0.501-1.843-0.501c-0.793,0-1.387,0.163-1.781,0.489s-0.592,0.716-0.592,1.169c0,0.449,0.21,0.847,0.63,1.192       S336.73,160.63,337.531,160.63z"
               id="path404" /><path
               d="M340.607,150.833h-0.914c0.703,0.484,1.055,1.143,1.055,1.975c0,0.367-0.07,0.71-0.211,1.028s-0.317,0.555-0.53,0.709       s-0.474,0.263-0.782,0.325c-0.207,0.043-0.535,0.064-0.984,0.064h-3.855v-1.055h3.451c0.551,0,0.922-0.021,1.113-0.064       c0.277-0.066,0.495-0.207,0.653-0.422s0.237-0.48,0.237-0.797s-0.081-0.613-0.243-0.891s-0.383-0.474-0.662-0.589       s-0.685-0.173-1.216-0.173h-3.334v-1.055h6.223V150.833z"
               id="path406" /><path
               d="M339.664,145.935l0.932-0.152c0.062,0.297,0.094,0.562,0.094,0.797c0,0.383-0.061,0.68-0.182,0.891       s-0.28,0.359-0.478,0.445s-0.612,0.129-1.245,0.129h-3.58v0.773h-0.82v-0.773h-1.541l-0.633-1.049h2.174v-1.061h0.82v1.061       h3.639c0.301,0,0.494-0.019,0.58-0.056s0.154-0.098,0.205-0.182s0.076-0.204,0.076-0.36       C339.705,146.28,339.691,146.126,339.664,145.935z"
               id="path408" /><path
               d="M343.133,139.555c-0.734,0.582-1.594,1.074-2.578,1.477s-2.004,0.604-3.059,0.604c-0.93,0-1.82-0.15-2.672-0.451       c-0.988-0.352-1.973-0.895-2.953-1.629v-0.756c0.812,0.473,1.393,0.785,1.74,0.938c0.539,0.238,1.102,0.426,1.688,0.562       c0.73,0.168,1.465,0.252,2.203,0.252c1.879,0,3.756-0.584,5.631-1.752V139.555z"
               id="path410" /><path
               d="M340.607,137.574h-6.223v-0.949h0.885c-0.684-0.457-1.025-1.117-1.025-1.98c0-0.375,0.067-0.721,0.202-1.035       s0.312-0.549,0.53-0.705s0.479-0.266,0.779-0.328c0.195-0.039,0.537-0.059,1.025-0.059h3.826v1.055h-3.785       c-0.43,0-0.751,0.041-0.964,0.123s-0.383,0.227-0.51,0.436s-0.19,0.455-0.19,0.736c0,0.449,0.143,0.836,0.428,1.162       s0.826,0.49,1.623,0.49h3.398V137.574z"
               id="path412" /><path
               d="M340.607,131.709l-8.59-3.299v-1.225l8.59-3.516v1.295l-2.602,1.002v3.592l2.602,0.943V131.709z M337.08,129.23v-2.912       l-2.379,0.896c-0.723,0.273-1.316,0.477-1.781,0.609c0.551,0.109,1.098,0.264,1.641,0.463L337.08,129.23z"
               id="path414" /><path
               d="M343.133,122.205v0.756c-1.875-1.168-3.752-1.752-5.631-1.752c-0.734,0-1.463,0.084-2.186,0.252       c-0.586,0.133-1.148,0.318-1.688,0.557c-0.352,0.152-0.938,0.467-1.758,0.943v-0.756c0.98-0.734,1.965-1.277,2.953-1.629       c0.852-0.301,1.742-0.451,2.672-0.451c1.055,0,2.074,0.201,3.059,0.605S342.398,121.627,343.133,122.205z"
               id="path416" /></g></g></g><g
         id="line2d_10"><g
           id="g430"><defs
             id="defs423"><rect
               id="SVGID_3_"
               x="377.486"
               y="134.294"
               width="224.078"
               height="22.77" /></defs><clipPath
             id="SVGID_4_"><use
               xlink:href="#SVGID_3_"
               overflow="visible"
               id="use425" /></clipPath><path
             clip-path="url(#SVGID_4_)"
             fill="none"
             stroke="#696969"
             stroke-width="2"
             stroke-linecap="square"
             stroke-linejoin="round"
             d="      M387.672,156.073h16.958l0.119-19.8h169.638l0.119,19.8h16.874l0,0"
             id="path428"
             style="stroke:#646464;stroke-opacity:1" /></g></g><g
         id="patch_6"><path
           fill="none"
           stroke="#000000"
           stroke-width="1.5"
           stroke-linecap="square"
           d="M377.486,157.063v-22.77"
           id="path433" /></g><g
         id="patch_7"><path
           fill="none"
           stroke="#000000"
           stroke-width="1.5"
           stroke-linecap="square"
           d="M377.486,157.063h224.078"
           id="path436" /></g></g></g><g
     id="g447"><rect
       x="576.185"
       y="2.562"
       fill="#E4262A"
       width="12.963"
       height="16.209"
       id="rect441"
       style="fill:#56d8ab;fill-opacity:1" /><g
       id="g445"><path
         fill="#FFFFFF"
         d="M580.508,9.368V8.604c0.721-0.069,1.223-0.187,1.508-0.352c0.283-0.164,0.496-0.553,0.637-1.166h0.786    v7.898h-1.063V9.368H580.508z"
         id="path443" /></g></g><g
     id="g455"><rect
       x="384.517"
       y="94.897"
       fill="#E4262A"
       width="12.966"
       height="16.205"
       id="rect449"
       style="fill:#56d8ab;fill-opacity:1" /><g
       id="g453"><path
         fill="#FFFFFF"
         d="M388.538,105.534c0.246-0.506,0.725-0.966,1.437-1.379l1.063-0.615c0.477-0.277,0.811-0.514,1.002-0.71    c0.303-0.307,0.454-0.658,0.454-1.054c0-0.463-0.138-0.83-0.415-1.102c-0.277-0.272-0.646-0.408-1.108-0.408    c-0.683,0-1.156,0.26-1.418,0.777c-0.14,0.278-0.218,0.663-0.232,1.156h-1.014c0.011-0.69,0.139-1.254,0.382-1.689    c0.432-0.769,1.194-1.152,2.287-1.152c0.909,0,1.572,0.246,1.991,0.736c0.419,0.491,0.629,1.038,0.629,1.64    c0,0.635-0.224,1.178-0.67,1.629c-0.258,0.262-0.722,0.579-1.39,0.952l-0.759,0.421c-0.362,0.199-0.646,0.39-0.853,0.57    c-0.369,0.321-0.602,0.678-0.698,1.069h4.331v0.941h-5.444C388.15,106.635,388.292,106.04,388.538,105.534z"
         id="path451" /></g></g><g
     id="g463"><rect
       x="622.518"
       y="107.897"
       fill="#E4262A"
       width="12.965"
       height="16.205"
       id="rect457"
       style="fill:#56d8ab;fill-opacity:1" /><g
       id="g461"><path
         fill="#FFFFFF"
         d="M626.663,119.761c-0.423-0.515-0.634-1.142-0.634-1.88h1.041c0.044,0.513,0.141,0.886,0.287,1.118    c0.259,0.417,0.727,0.626,1.402,0.626c0.523,0,0.945-0.141,1.262-0.421c0.318-0.28,0.477-0.643,0.477-1.086    c0-0.546-0.167-0.928-0.501-1.146c-0.334-0.218-0.798-0.326-1.394-0.326c-0.066,0-0.133,0.001-0.201,0.003    s-0.139,0.004-0.208,0.008v-0.881c0.104,0.012,0.19,0.019,0.261,0.022s0.146,0.006,0.227,0.006c0.373,0,0.68-0.06,0.92-0.178    c0.42-0.206,0.631-0.576,0.631-1.107c0-0.396-0.141-0.7-0.421-0.914s-0.607-0.321-0.98-0.321c-0.665,0-1.124,0.222-1.379,0.665    c-0.141,0.243-0.22,0.591-0.238,1.041h-0.985c0-0.591,0.117-1.093,0.354-1.507c0.406-0.738,1.121-1.107,2.145-1.107    c0.809,0,1.434,0.18,1.877,0.54s0.664,0.882,0.664,1.564c0,0.487-0.131,0.883-0.393,1.186c-0.162,0.188-0.373,0.336-0.631,0.443    c0.416,0.114,0.742,0.335,0.977,0.661c0.234,0.327,0.352,0.727,0.352,1.199c0,0.757-0.248,1.374-0.747,1.851    c-0.499,0.476-1.206,0.714-2.122,0.714C627.766,120.533,627.086,120.275,626.663,119.761z"
         id="path459" /></g></g><g
     id="g477"><g
       id="g475"><line
         fill="none"
         stroke="#1D1D1B"
         stroke-miterlimit="10"
         x1="613"
         y1="109.035"
         x2="613"
         y2="125.965"
         id="line465" /><g
         id="g469"><path
           fill="#1D1D1B"
           d="M613,103c-1.054,2.84-2.852,6.363-4.756,8.547l4.756-1.72l4.755,1.72     C615.851,109.363,614.053,105.84,613,103z"
           id="path467" /></g><g
         id="g473"><path
           fill="#1D1D1B"
           d="M613,132c-1.054-2.84-2.852-6.363-4.756-8.547l4.756,1.72l4.755-1.72     C615.851,125.637,614.053,129.16,613,132z"
           id="path471" /></g></g></g><line
     fill="none"
     stroke="#1D1D1B"
     stroke-linecap="round"
     stroke-miterlimit="10"
     x1="421"
     y1="28"
     x2="573"
     y2="10"
     id="line479" /><line
     fill="none"
     stroke="#1D1D1B"
     stroke-linecap="round"
     stroke-miterlimit="10"
     x1="446"
     y1="28.332"
     x2="573"
     y2="10"
     id="line481" /><line
     fill="none"
     stroke="#1D1D1B"
     stroke-linecap="round"
     stroke-miterlimit="10"
     x1="475.333"
     y1="27.999"
     x2="573"
     y2="10"
     id="line483" /><line
     fill="none"
     stroke="#1D1D1B"
     stroke-linecap="round"
     stroke-miterlimit="10"
     x1="507.333"
     y1="27.332"
     x2="573"
     y2="10"
     id="line485" /><line
     fill="none"
     stroke="#1D1D1B"
     stroke-linecap="round"
     stroke-miterlimit="10"
     x1="544.333"
     y1="26.665"
     x2="573"
     y2="10"
     id="line487" /><g
     id="g489" /><g
     id="g491" /></svg>