<?xml version="1.0" encoding="utf-8" standalone="no"?>
<!DOCTYPE svg PUBLIC "-//W3C//DTD SVG 1.1//EN"
  "http://www.w3.org/Graphics/SVG/1.1/DTD/svg11.dtd">
<!-- Created with matplotlib (https://matplotlib.org/) -->
<svg height="125.28pt" version="1.1" viewBox="0 0 181.8 125.28" width="181.8pt" xmlns="http://www.w3.org/2000/svg" xmlns:xlink="http://www.w3.org/1999/xlink">
 <defs>
  <style type="text/css">
*{stroke-linecap:butt;stroke-linejoin:round;}
  </style>
 </defs>
 <g id="figure_1">
  <g id="patch_1">
   <path d="M 0 125.28 
L 181.8 125.28 
L 181.8 0 
L 0 0 
z
" style="fill:#ffffff;"/>
  </g>
  <g id="axes_1">
   <g id="line2d_1">
    <path clip-path="url(#pa3f306e9b9)" d="M 14.809091 45.730309 
L 16.346281 70.16449 
L 17.883471 70.694657 
L 19.420661 75.491502 
L 20.957851 99.859514 
L 22.495041 69.631223 
L 24.032231 76.529123 
L 25.569421 75.255275 
L 27.106612 76.412606 
L 28.643802 83.610428 
L 30.180992 94.786787 
L 31.718182 66.535384 
L 33.255372 77.22849 
L 34.792562 107.827951 
L 36.329752 56.620817 
L 37.866942 68.189849 
L 39.404132 53.609277 
L 40.941322 68.616208 
L 42.478512 43.850186 
L 44.015702 70.618092 
L 45.552893 65.669311 
L 47.090083 45.015106 
L 48.627273 62.096406 
L 50.164463 77.470049 
L 51.701653 12.24 
L 53.238843 73.94907 
L 54.776033 76.433665 
L 56.313223 89.173754 
L 57.850413 56.466988 
L 59.387603 60.38578 
L 60.924793 95.041279 
L 62.461983 69.788453 
L 63.999174 54.840871 
L 65.536364 90.457807 
L 67.073554 66.238848 
L 68.610744 86.806003 
L 70.147934 113.04 
L 71.685124 101.215403 
L 73.222314 70.592386 
L 74.759504 44.027852 
L 76.296694 90.644806 
L 77.833884 44.362329 
L 79.371074 70.181983 
L 80.908264 67.60431 
L 82.445455 67.838377 
L 83.982645 83.902019 
L 85.519835 84.069937 
L 87.057025 54.482956 
L 88.594215 75.121661 
L 90.131405 50.493999 
L 91.668595 61.631936 
L 93.205785 63.068572 
L 94.742975 68.232334 
L 96.280165 72.545257 
L 97.817355 69.735593 
L 99.354545 67.280969 
L 100.891736 87.530836 
L 102.428926 89.494595 
L 103.966116 64.886424 
L 105.503306 35.86464 
L 107.040496 84.86187 
L 108.577686 84.67241 
L 110.114876 72.905507 
L 111.652066 103.128396 
L 113.189256 58.782796 
L 114.726446 79.65733 
L 116.263636 36.226974 
L 117.800826 64.293339 
L 119.338017 50.533213 
L 120.875207 92.137872 
L 122.412397 41.553143 
L 123.949587 84.229774 
L 125.486777 81.221238 
L 127.023967 44.141525 
L 128.561157 75.918708 
L 130.098347 55.275256 
L 131.635537 89.973732 
L 133.172727 74.594315 
L 134.709917 88.165558 
L 136.247107 68.710836 
L 137.784298 48.023235 
L 139.321488 73.438105 
L 140.858678 60.166194 
L 142.395868 88.912968 
L 143.933058 56.780754 
L 145.470248 54.757386 
L 147.007438 70.263926 
L 148.544628 67.231998 
L 150.081818 69.235951 
L 151.619008 68.793946 
L 153.156198 40.381001 
L 154.693388 74.482384 
L 156.230579 78.389249 
L 157.767769 68.975377 
L 159.304959 62.243672 
L 160.842149 71.220576 
L 162.379339 56.441254 
L 163.916529 82.079509 
L 165.453719 56.054281 
L 166.990909 88.938243 
" style="fill:none;stroke:#333333;stroke-linecap:square;stroke-width:1.5;"/>
   </g>
  </g>
 </g>
 <defs>
  <clipPath id="pa3f306e9b9">
   <rect height="110.88" width="167.4" x="7.2" y="7.2"/>
  </clipPath>
 </defs>
</svg>
